<svg id="SvgjsSvg1101" xmlns="http://www.w3.org/2000/svg" version="1.1" xmlns:xlink="http://www.w3.org/1999/xlink" xmlns:svgjs="http://svgjs.com/svgjs" width="32" height="32" viewBox="0 0 32 32"><title>banknote</title><desc>Created with Avocode.</desc><defs id="SvgjsDefs1102"></defs><path id="SvgjsPath1103" d="M185.415 430.586L175.415 420.586C174.91799999999998 420.09000000000003 174.2 419.891 173.519 420.059C173.16 420.14700000000005 172.839 420.33200000000005 172.586 420.586C172.359 420.813 172.187 421.094 172.089 421.408C171.635 422.877 170.852 424.154 169.694 425.312C168.146 426.85900000000004 166.13 428.031 163.99699999999999 429.27000000000004C161.73299999999998 430.58200000000005 159.39399999999998 431.94100000000003 157.47699999999998 433.857C155.84799999999998 435.488 154.73899999999998 437.30300000000005 154.08899999999997 439.408C153.87099999999998 440.119 154.06099999999998 440.889 154.58499999999998 441.414L164.58599999999998 451.414C165.082 451.90999999999997 165.79999999999998 452.109 166.481 451.941C166.84 451.852 167.161 451.66799999999995 167.415 451.414C167.641 451.187 167.813 450.906 167.911 450.59C168.365 449.121 169.148 447.844 170.307 446.686C171.85399999999998 445.13899999999995 173.86999999999998 443.969 176.004 442.731C178.267 441.416 180.606 440.057 182.523 438.141C184.152 436.512 185.261 434.695 185.911 432.59000000000003C186.129 431.88100000000003 185.939 431.10900000000004 185.415 430.586ZM166.001 450C162.68800000000002 446.688 159.312 443.311 156 440C158.841 430.799 171.159 431.201 173.999 422C177.31199999999998 425.311 180.688 428.688 184.001 432C181.159 441.199 168.841 440.799 166.001 450ZM173.561 434.9C173.235 434.62699999999995 172.907 434.441 172.577 434.34999999999997C172.249 434.258 171.92 434.22099999999995 171.588 434.24399999999997C171.26 434.27 170.924 434.344 170.588 434.47299999999996C170.253 434.6039999999999 169.915 434.746 169.575 434.90999999999997C169.03799999999998 434.29299999999995 168.50099999999998 433.68399999999997 167.963 433.11699999999996C168.206 432.89799999999997 168.44 432.787 168.667 432.77899999999994C168.893 432.7699999999999 169.112 432.79299999999995 169.319 432.84599999999995C169.53 432.89799999999997 169.72299999999998 432.9429999999999 169.90099999999998 432.9789999999999C170.081 433.01399999999995 170.237 432.9749999999999 170.374 432.8589999999999C170.518 432.7339999999999 170.59799999999998 432.57199999999995 170.60999999999999 432.3769999999999C170.61999999999998 432.1799999999999 170.545 431.9879999999999 170.38099999999997 431.8009999999999C170.16999999999996 431.55899999999986 169.91699999999997 431.41199999999986 169.61199999999997 431.35699999999986C169.31099999999998 431.30499999999984 169.00299999999996 431.30899999999986 168.68199999999996 431.37899999999985C168.36599999999996 431.45099999999985 168.06499999999997 431.5699999999998 167.77999999999997 431.73799999999983C167.49499999999998 431.90599999999984 167.26599999999996 432.0779999999998 167.09599999999998 432.2459999999998C167.03099999999998 432.1839999999998 166.96599999999998 432.1229999999998 166.90099999999998 432.0629999999998C166.82899999999998 431.9959999999998 166.73899999999998 431.96099999999984 166.63099999999997 431.9629999999998C166.52199999999996 431.9629999999998 166.43199999999996 432.0099999999998 166.35799999999998 432.0959999999998C166.28599999999997 432.1799999999998 166.253 432.27699999999976 166.26599999999996 432.3809999999998C166.27599999999995 432.48799999999983 166.31899999999996 432.5699999999998 166.39299999999997 432.6329999999998C166.45799999999997 432.6879999999998 166.52299999999997 432.7419999999998 166.58799999999997 432.7989999999998C166.33299999999997 433.1069999999998 166.12199999999996 433.4489999999998 165.95599999999996 433.8089999999998C165.78799999999995 434.1699999999998 165.68799999999996 434.5269999999998 165.65099999999995 434.8749999999998C165.61199999999997 435.2249999999998 165.64899999999994 435.5449999999998 165.75599999999994 435.84199999999976C165.86399999999995 436.14099999999974 166.06099999999995 436.39499999999975 166.34999999999994 436.63499999999976C166.82099999999994 437.02499999999975 167.37599999999995 437.19099999999975 168.01799999999994 437.15399999999977C168.65899999999993 437.1149999999998 169.34999999999994 436.92399999999975 170.09199999999996 436.52499999999975C170.68299999999996 437.20699999999977 171.27499999999995 437.88499999999976 171.86599999999996 438.5139999999997C171.61599999999996 438.72499999999974 171.39699999999996 438.8459999999997 171.20399999999995 438.8849999999997C171.00999999999996 438.9259999999997 170.83799999999994 438.9219999999997 170.68199999999996 438.8749999999997C170.52599999999995 438.82599999999974 170.38099999999997 438.7559999999997 170.24899999999997 438.6659999999997C170.11599999999996 438.5739999999997 169.98499999999996 438.4959999999997 169.85399999999996 438.43199999999973C169.72499999999997 438.36699999999973 169.59199999999996 438.3319999999997 169.45599999999996 438.32999999999976C169.31899999999996 438.32799999999975 169.17399999999995 438.3939999999998 169.01399999999995 438.5309999999998C168.84999999999997 438.67399999999975 168.76799999999994 438.8399999999998 168.76799999999994 439.02699999999976C168.76799999999994 439.21299999999974 168.85399999999996 439.40199999999976 169.02199999999993 439.59399999999977C169.19199999999992 439.78499999999974 169.41299999999993 439.94499999999977 169.67999999999992 440.0719999999998C169.94799999999992 440.1989999999998 170.2489999999999 440.27899999999977 170.58099999999993 440.30099999999976C170.91299999999993 440.3239999999998 171.26199999999994 440.27299999999974 171.63099999999994 440.1369999999998C172.00299999999996 440.0019999999998 172.36999999999995 439.75799999999975 172.73099999999994 439.39499999999975C172.90599999999995 439.56499999999977 173.08199999999994 439.72699999999975 173.25599999999994 439.88299999999975C173.33099999999993 439.9469999999998 173.41999999999993 439.97899999999976 173.52999999999994 439.9709999999998C173.63499999999993 439.96699999999976 173.72699999999995 439.9179999999998 173.79899999999995 439.82999999999976C173.87399999999994 439.7399999999998 173.90499999999994 439.64099999999974 173.89299999999994 439.53699999999975C173.88299999999995 439.43199999999973 173.83999999999995 439.35199999999975 173.76799999999994 439.2929999999997C173.59199999999996 439.1519999999997 173.41699999999994 439.00399999999973 173.24099999999996 438.84799999999973C173.53999999999996 438.4809999999997 173.77999999999994 438.0939999999997 173.95799999999997 437.71099999999973C174.13499999999996 437.32599999999974 174.24099999999996 436.95499999999976 174.27599999999998 436.6109999999997C174.31099999999998 436.2659999999997 174.26999999999998 435.9529999999997 174.15699999999998 435.66999999999973C174.045 435.38299999999975 173.84599999999998 435.1369999999997 173.56099999999998 434.89999999999975ZM167.971 435.578C167.68800000000002 435.59 167.441 435.496 167.225 435.287C167.13299999999998 435.19899999999996 167.069 435.092 167.03 434.965C166.989 434.83799999999997 166.975 434.69899999999996 166.991 434.54699999999997C167.00400000000002 434.397 167.049 434.23999999999995 167.12800000000001 434.082C167.20200000000003 433.924 167.311 433.766 167.45200000000003 433.613C167.95900000000003 434.117 168.46400000000003 434.67 168.97100000000003 435.242C168.58800000000002 435.45300000000003 168.25400000000002 435.56600000000003 167.97100000000003 435.57800000000003ZM172.688 437.58C172.59799999999998 437.746 172.49499999999998 437.895 172.373 438.02299999999997C171.814 437.457 171.253 436.83599999999996 170.694 436.19699999999995C170.83599999999998 436.1329999999999 170.987 436.066 171.149 435.99799999999993C171.311 435.92999999999995 171.473 435.88499999999993 171.635 435.8569999999999C171.801 435.83199999999994 171.965 435.8399999999999 172.129 435.8789999999999C172.292 435.9199999999999 172.446 436.0079999999999 172.588 436.1469999999999C172.72899999999998 436.28699999999986 172.819 436.43399999999986 172.85399999999998 436.59199999999987C172.89299999999997 436.7519999999999 172.89499999999998 436.9139999999999 172.868 437.07999999999987C172.838 437.24599999999987 172.78 437.41199999999986 172.688 437.57999999999987ZM168.717 442.18H168.715C168.09 442.66 167.48 443.166 166.916 443.732C166.373 444.27500000000003 165.881 444.848 165.45499999999998 445.432L164.771 446.365L164.773 446.367C164.648 446.56300000000005 164.66899999999998 446.824 164.839 446.994C165.035 447.19000000000005 165.353 447.19000000000005 165.549 446.994C165.58 446.963 165.603 446.93 165.62300000000002 446.89500000000004L166.26200000000003 446.02000000000004C166.65900000000002 445.47900000000004 167.11700000000002 444.94500000000005 167.62400000000002 444.44000000000005C168.18400000000003 443.8790000000001 168.705 443.44500000000005 169.33700000000002 442.96500000000003L169.336 442.963C169.353 442.949 169.371 442.93800000000005 169.38600000000002 442.922C169.58300000000003 442.72700000000003 169.58300000000003 442.408 169.38600000000002 442.213C169.20400000000004 442.029 168.91400000000002 442.021 168.717 442.18ZM172.378 427.715C171.855 428.238 171.28799999999998 428.709 170.701 429.15799999999996C170.659 429.18199999999996 170.618 429.20699999999994 170.583 429.24399999999997C170.385 429.441 170.385 429.76199999999994 170.583 429.95899999999995C170.775 430.15199999999993 171.084 430.15599999999995 171.283 429.97299999999996L171.28599999999997 429.97499999999997C171.91199999999998 429.49399999999997 172.51999999999998 428.986 173.08499999999998 428.42199999999997C173.62699999999998 427.87899999999996 174.11899999999997 427.30899999999997 174.545 426.72499999999997L175.22899999999998 425.787L175.22699999999998 425.78499999999997C175.39699999999996 425.58599999999996 175.39 425.289 175.20199999999997 425.102C175.00499999999997 424.904 174.68599999999998 424.904 174.48899999999998 425.102C174.45299999999997 425.13899999999995 174.42499999999998 425.18199999999996 174.402 425.22499999999997L173.737 426.135C173.341 426.678 172.88299999999998 427.209 172.378 427.715Z " fill="#202728" fill-opacity="1" transform="matrix(1,0,0,1,-154,-420)"></path></svg>