<svg id="SvgjsSvg1065" xmlns="http://www.w3.org/2000/svg" version="1.1" xmlns:xlink="http://www.w3.org/1999/xlink" xmlns:svgjs="http://svgjs.com/svgjs" width="32" height="28" viewBox="0 0 32 28"><title>bubble</title><desc>Created with Avocode.</desc><defs id="SvgjsDefs1066"></defs><path id="SvgjsPath1067" d="M171 309C165.037 309 160 312.206 160 316C160 316.276 160.224 316.5 160.5 316.5C160.776 316.5 161 316.276 161 316C161 312.804 165.673 310 171 310C171.276 310 171.5 309.776 171.5 309.5C171.5 309.224 171.276 309 171 309ZM171 304C162.163 304 155 309.373 155 316C155 320.127 157.779 323.766 162.008 325.926C162.008 325.953 162 325.971 162 326C162 327.793 160.661 329.723 160.072 330.736C160.073 330.736 160.074 330.736 160.074 330.736C160.02700000000002 330.846 160 330.967 160 331.094C160 331.59499999999997 160.405 332 160.906 332C161 332 161.165 331.975 161.161 331.987C164.286 331.476 167.23 328.605 167.914 327.77200000000005C168.91299999999998 327.91800000000006 169.94299999999998 328.00000000000006 171 328.00000000000006C179.836 328.00000000000006 187 322.62700000000007 187 316.00000000000006C187 309.37300000000005 179.836 304.00000000000006 171 304.00000000000006ZM171 326C170.083 326 169.143 325.931 168.204 325.793C168.107 325.778 168.01000000000002 325.772 167.91400000000002 325.772C167.32000000000002 325.772 166.751 326.036 166.36800000000002 326.503C165.94000000000003 327.024 164.723 328.186 163.28300000000002 329.042C163.673 328.14799999999997 163.979 327.14399999999995 163.99900000000002 326.10999999999996C164.00500000000002 326.04599999999994 164.008 325.98099999999994 164.008 325.92599999999993C164.008 325.17499999999995 163.58700000000002 324.48599999999993 162.918 324.1449999999999C159.21200000000002 322.25199999999995 157 319.20699999999994 157 315.99999999999994C157 310.48599999999993 163.28 305.99999999999994 171 305.99999999999994C178.72 305.99999999999994 185 310.48599999999993 185 315.99999999999994C185 321.51399999999995 178.72 325.99999999999994 171 325.99999999999994Z " fill="#202728" fill-opacity="1" transform="matrix(1,0,0,1,-155,-304)"></path></svg>