<svg id="SvgjsSvg1047" xmlns="http://www.w3.org/2000/svg" version="1.1" xmlns:xlink="http://www.w3.org/1999/xlink" xmlns:svgjs="http://svgjs.com/svgjs" width="22" height="32" viewBox="0 0 22 32"><title>bulb</title><desc>Created with Avocode.</desc><defs id="SvgjsDefs1048"></defs><path id="SvgjsPath1049" d="M171 242C164.925 242 160 246.925 160 253C160 257.031 163.689 261.303 165.031 265.055C167.034 270.651 166.81300000000002 274 171 274C175.25 274 174.965 270.666 176.969 265.078C178.316 261.318 182 257 182 252.99999999999997C182 246.92499999999998 177.075 241.99999999999997 171 241.99999999999997ZM173.593 269.176L168.634 269.796C168.457 269.283 168.267 268.68399999999997 168.03599999999997 267.902C168.033 267.893 168.02899999999997 267.881 168.027 267.871L174.21599999999998 267.09799999999996C174.128 267.39399999999995 174.033 267.70399999999995 173.95199999999997 267.98199999999997C173.82099999999997 268.431 173.70299999999997 268.82099999999997 173.59299999999996 269.176ZM167.736 266.908C167.55499999999998 266.307 167.35 265.672 167.12099999999998 265H174.88699999999997C174.76499999999996 265.359 174.64199999999997 265.719 174.53499999999997 266.059ZM171 272C169.987 272 169.521 271.884 169.003 270.75L173.24099999999999 270.22C172.628 271.87300000000005 172.18099999999998 272 170.99999999999997 272ZM175.672 263H166.339C165.841 261.921 165.243 260.84 164.653 259.783C163.349 257.44800000000004 162 255.03300000000002 162 253.00000000000003C162 248.03700000000003 166.037 244.00000000000003 171 244.00000000000003C175.963 244.00000000000003 180 248.03700000000003 180 253.00000000000003C180 255.01800000000003 178.65 257.446 177.345 259.795C176.76 260.849 176.167 261.926 175.672 263ZM171 247C167.691 247 165 249.691 165 253C165 253.276 165.224 253.5 165.5 253.5C165.776 253.5 166 253.276 166 253C166 250.243 168.243 248 171 248C171.276 248 171.5 247.776 171.5 247.5C171.5 247.224 171.276 247 171 247Z " fill="#202728" fill-opacity="1" transform="matrix(1,0,0,1,-160,-242)"></path></svg>