<svg id="SvgjsSvg1134" xmlns="http://www.w3.org/2000/svg" version="1.1" xmlns:xlink="http://www.w3.org/1999/xlink" xmlns:svgjs="http://svgjs.com/svgjs" width="32" height="32" viewBox="0 0 32 32"><title>calendar</title><desc>Created with Avocode.</desc><defs id="SvgjsDefs1135"></defs><path id="SvgjsPath1136" d="M124.333 552H120V550C120 549.447 119.552 549 119 549C118.448 549 118 549.447 118 550V552H112V550C112 549.447 111.552 549 111 549C110.448 549 110 549.447 110 550V552H104V550C104 549.447 103.552 549 103 549C102.448 549 102 549.447 102 550V552H97.6665C96.1938 552 95 553.193 95 554.666V578.3330000000001C95 579.806 96.1938 581.0000000000001 97.6665 581.0000000000001H124.333C125.806 581.0000000000001 127 579.8060000000002 127 578.3330000000001V554.666C127 553.1930000000001 125.806 552 124.333 552ZM125 578.333C125 578.701 124.701 579 124.333 579H97.6665C97.2988 579 97 578.701 97 578.333V554.6659999999999C97 554.299 97.2988 553.9999999999999 97.6665 553.9999999999999H102V555.9999999999999C102 556.5529999999999 102.448 556.9999999999999 103 556.9999999999999C103.552 556.9999999999999 104 556.5529999999999 104 555.9999999999999V553.9999999999999H110V555.9999999999999C110 556.5529999999999 110.448 556.9999999999999 111 556.9999999999999C111.552 556.9999999999999 112 556.5529999999999 112 555.9999999999999V553.9999999999999H118V555.9999999999999C118 556.5529999999999 118.448 556.9999999999999 119 556.9999999999999C119.552 556.9999999999999 120 556.5529999999999 120 555.9999999999999V553.9999999999999H124.333C124.701 553.9999999999999 125 554.2989999999999 125 554.6659999999999ZM102 564V561H106V564ZM102 569V566H106V569ZM102 574V571H106V574ZM109 574V571H113V574ZM109 569V566H113V569ZM109 564V561H113V564ZM116 574V571H120V574ZM116 569V566H120V569ZM116 564V561H120V564Z " fill="#202728" fill-opacity="1" transform="matrix(1,0,0,1,-95,-549)"></path></svg>