<svg id="SvgjsSvg1038" xmlns="http://www.w3.org/2000/svg" version="1.1" xmlns:xlink="http://www.w3.org/1999/xlink" xmlns:svgjs="http://svgjs.com/svgjs" width="32" height="27" viewBox="0 0 32 27"><title>camera</title><desc>Created with Avocode.</desc><defs id="SvgjsDefs1039"></defs><path id="SvgjsPath1040" d="M351 192.002C346.581 192.002 343 195.583 343 200.002C343 204.42000000000002 346.581 208.002 351 208.002C355.419 208.002 359 204.42000000000002 359 200.002C359 195.583 355.419 192.002 351 192.002ZM355.555 203.906C353.398 206.422 349.611 206.71200000000002 347.096 204.55700000000002C344.579 202.401 344.289 198.61300000000003 346.445 196.097C348.601 193.58100000000002 352.389 193.291 354.904 195.447C357.421 197.602 357.711 201.39000000000001 355.555 203.906ZM351 196.002C348.791 196.002 347.001 197.793 347 200.001V200.002C347 200.27800000000002 347.224 200.502 347.5 200.502C347.776 200.502 348 200.27800000000002 348 200.002V200.001C348.001 198.344 349.343 197.002 351 197.002C351.276 197.002 351.5 196.77800000000002 351.5 196.501C351.5 196.225 351.276 196.002 351 196.002ZM364.493 191.042L360.158 190.319L358.785 186.885C358.326 185.73999999999998 357.232 185.001 356 185.001H346C344.768 185.001 343.674 185.74 343.214 186.886L341.842 190.319L337.50899999999996 191.042C336.05499999999995 191.28300000000002 334.99999999999994 192.52700000000002 334.99999999999994 194.001V209C334.99999999999994 210.654 336.34599999999995 212 337.99999999999994 212H363.99999999999994C365.65399999999994 212 366.99999999999994 210.654 366.99999999999994 209V194.001C366.99999999999994 192.52700000000002 365.94499999999994 191.28300000000002 364.49299999999994 191.042ZM365 209C365 209.552 364.553 210 364 210H338C337.447 210 337 209.552 337 209V194.001C337 193.511 337.354 193.094 337.836 193.014L343.28000000000003 192.107L345.071 187.629C345.22400000000005 187.25 345.591 187 346 187H356C356.409 187 356.776 187.25 356.929 187.629L358.71999999999997 192.107L364.164 193.014C364.647 193.09400000000002 365 193.51100000000002 365 194.001Z " fill="#202728" fill-opacity="1" transform="matrix(1,0,0,1,-335,-185)"></path></svg>