<svg id="SvgjsSvg1128" xmlns="http://www.w3.org/2000/svg" version="1.1" xmlns:xlink="http://www.w3.org/1999/xlink" xmlns:svgjs="http://svgjs.com/svgjs" width="32" height="29" viewBox="0 0 32 29"><title>clip</title><desc>Created with Avocode.</desc><defs id="SvgjsDefs1129"></defs><path id="SvgjsPath1130" d="M363.363 488.634C359.85 485.122 354.15 485.122 350.637 488.634L336.047 503.035C333.31800000000004 505.762 333.31800000000004 510.199 336.047 512.9250000000001C338.77500000000003 515.6510000000001 343.21700000000004 515.6510000000001 345.94500000000005 512.9250000000001L360.535 498.5230000000001C362.488 496.57200000000006 362.488 493.4100000000001 360.535 491.45900000000006C358.58200000000005 489.50900000000007 355.41600000000005 489.50900000000007 353.46500000000003 491.45900000000006L342.49600000000004 502.4150000000001C342.10600000000005 502.8060000000001 342.10600000000005 503.43700000000007 342.49600000000004 503.82900000000006C342.88700000000006 504.21900000000005 343.52000000000004 504.21900000000005 343.91 503.82900000000006L354.879 492.87100000000004C356.04900000000004 491.70400000000006 357.951 491.70400000000006 359.12100000000004 492.87100000000004C360.29100000000005 494.04 360.29100000000005 495.94100000000003 359.12100000000004 497.11L344.53100000000006 511.512C342.5780000000001 513.463 339.41400000000004 513.463 337.46100000000007 511.512C335.5080000000001 509.562 335.5080000000001 506.399 337.46100000000007 504.449L351.9080000000001 490.188C354.6430000000001 487.45599999999996 359.0760000000001 487.45599999999996 361.8070000000001 490.188C364.54300000000006 492.92 364.54300000000006 497.34499999999997 361.8090000000001 500.077L350.9820000000001 510.891C350.5900000000001 511.28200000000004 350.5900000000001 511.913 350.9820000000001 512.304C351.3730000000001 512.6949999999999 352.0060000000001 512.6949999999999 352.3970000000001 512.304L363.3630000000001 501.34799999999996C366.87900000000013 497.83699999999993 366.87900000000013 492.145 363.3630000000001 488.63399999999996Z " fill="#202728" fill-opacity="1" transform="matrix(1,0,0,1,-334,-486)"></path></svg>