<svg id="SvgjsSvg1092" xmlns="http://www.w3.org/2000/svg" version="1.1" xmlns:xlink="http://www.w3.org/1999/xlink" xmlns:svgjs="http://svgjs.com/svgjs" width="22" height="32" viewBox="0 0 22 32"><title>clock</title><desc>Created with Avocode.</desc><defs id="SvgjsDefs1093"></defs><path id="SvgjsPath1094" d="M350 372C350.553 372 351 371.552 351 371C351 370.447 350.553 370 350 370C349.447 370 349 370.447 349 371C349 371.552 349.447 372 350 372ZM350 382C349.447 382 349 382.448 349 383C349 383.553 349.447 384 350 384C350.553 384 351 383.553 351 383C351 382.448 350.553 382 350 382ZM344 376C343.447 376 343 376.447 343 377C343 377.552 343.447 378 344 378C344.553 378 345 377.552 345 377C345 376.447 344.553 376 344 376ZM355 377C355 377.552 355.447 378 356 378C356.553 378 357 377.552 357 377C357 376.447 356.553 376 356 376C355.447 376 355 376.447 355 377ZM345.051 380.535C344.659 380.92600000000004 344.659 381.559 345.051 381.949C345.441 382.34000000000003 346.073 382.34000000000003 346.465 381.949C346.856 381.559 346.856 380.926 346.465 380.535C346.073 380.14500000000004 345.441 380.14500000000004 345.051 380.535ZM345.051 372.051C344.659 372.441 344.659 373.073 345.05 373.465C345.44100000000003 373.85499999999996 346.07300000000004 373.85499999999996 346.46500000000003 373.465C346.85600000000005 373.073 346.85600000000005 372.441 346.46500000000003 372.051C346.07300000000004 371.659 345.44100000000003 371.659 345.05100000000004 372.051ZM353.535 380.535C353.14500000000004 380.92600000000004 353.14500000000004 381.559 353.535 381.949C353.927 382.34000000000003 354.559 382.34000000000003 354.95000000000005 381.949C355.34100000000007 381.559 355.34100000000007 380.926 354.94900000000007 380.535C354.5590000000001 380.14500000000004 353.9270000000001 380.14500000000004 353.5350000000001 380.535ZM360 375C359.93 375 359.871 375.033 359.803 375.04C359.455 373.295 358.634 371.73400000000004 357.506 370.446L356.07099999999997 362.63500000000005C355.895 361.68700000000007 355.068 361.00000000000006 354.10499999999996 361.00000000000006H346.10499999999996C345.14099999999996 361.00000000000006 344.31399999999996 361.68700000000007 344.138 362.63500000000005L342.73699999999997 370.18300000000005C341.058 371.97100000000006 339.99999999999994 374.35200000000003 339.99999999999994 377.00000000000006C339.99999999999994 379.58200000000005 341.01399999999995 381.90500000000003 342.6209999999999 383.67800000000005L344.0329999999999 391.36500000000007C344.2099999999999 392.31300000000005 345.0359999999999 393.00000000000006 345.9999999999999 393.00000000000006H353.9999999999999C354.9639999999999 393.00000000000006 355.7899999999999 392.31300000000005 355.96699999999987 391.36500000000007L357.3919999999999 383.6840000000001C358.57999999999987 382.3730000000001 359.44299999999987 380.76400000000007 359.8029999999999 378.95900000000006C359.87099999999987 378.96700000000004 359.9299999999999 379.00000000000006 359.9999999999999 379.00000000000006C361.1049999999999 379.00000000000006 361.9999999999999 378.10400000000004 361.9999999999999 377.00000000000006C361.9999999999999 375.89500000000004 361.1049999999999 375.00000000000006 359.9999999999999 375.00000000000006ZM346.105 363H354.105L355.105 368.386C353.62800000000004 367.528 351.93600000000004 367 350.105 367C348.273 367 346.581 367.528 345.105 368.386ZM354 391H346L345 385.614C346.477 386.471 348.169 387 350 387C351.831 387 353.523 386.471 355 385.614ZM350 385C345.589 385 342 381.41 342 377C342 372.589 345.589 369 350 369C354.411 369 358 372.589 358 377C358 381.41 354.411 385 350 385ZM354.941 372.026C354.82 371.90500000000003 354.625 371.89500000000004 354.488 372.005L349.297 376.29C349.10600000000005 376.482 349 376.73600000000005 349 377.009C349 377.271 349.102 377.52000000000004 349.289 377.707C349.477 377.893 349.727 377.997 349.996 377.99899999999997C350.246 377.99699999999996 350.506 377.90399999999994 350.695 377.72099999999995L352.543 375.49699999999996L354.969 372.47599999999994C355.074 372.34299999999996 355.063 372.14699999999993 354.941 372.02599999999995Z " fill="#202728" fill-opacity="1" transform="matrix(1,0,0,1,-340,-361)"></path></svg>