<svg id="SvgjsSvg1000" xmlns="http://www.w3.org/2000/svg" version="1.1" xmlns:xlink="http://www.w3.org/1999/xlink" xmlns:svgjs="http://svgjs.com/svgjs" width="32" height="23" viewBox="0 0 32 23"><title>cloud</title><desc>Created with Avocode.</desc><defs id="SvgjsDefs1001"></defs><path id="SvgjsPath1007" d="M60.9141 134.143C60.4756 129.58 56.6768 126 52 126C48.3809 126 45.2823 128.148 43.8535 131.23C43.423899999999996 131.094 42.9756 131 42.501 131C40.0156 131 38.001 133.016 38.001 135.5C38.001 135.994 38.099599999999995 136.461 38.247099999999996 136.904C36.314499999999995 138.031 35.001 140.101 35.001 142.499C35.001 146.089 37.9112 148.999 41.501 148.999V149H59.5V148.999C63.6426 148.999 66.999 145.642 66.999 141.499C66.999 137.84199999999998 64.3789 134.805 60.9141 134.143ZM59.5 146.999V147H41.501000000000005C39.019600000000004 146.999 37.001000000000005 144.981 37.001000000000005 142.499C37.001000000000005 140.899 37.8438 139.454 39.254900000000006 138.632C40.626000000000005 137.844 40.719800000000006 137.68800000000002 40.144600000000004 136.273C40.047900000000006 135.982 40.001000000000005 135.73 40.001000000000005 135.5C40.001000000000005 134.121 41.1221 133 42.501000000000005 133C42.501000000000005 133 43.157300000000006 132.953 43.853500000000004 133.231C45.001000000000005 133.688 45.126000000000005 133.25 45.668000000000006 132.071C46.81450000000001 129.599 49.299800000000005 128 52.00000000000001 128C55.59960000000001 128 58.57620000000001 130.723 58.922900000000006 134.334C59.04690000000001 135.766 59.04690000000001 135.766 60.539100000000005 136.107C63.124 136.601 65 138.869 65 141.499C65 144.53199999999998 62.5332 146.999 59.5 146.999Z " fill="#202728" fill-opacity="1" transform="matrix(1,0,0,1,-35,-126)"></path></svg>