<svg id="SvgjsSvg1071" xmlns="http://www.w3.org/2000/svg" version="1.1" xmlns:xlink="http://www.w3.org/1999/xlink" xmlns:svgjs="http://svgjs.com/svgjs" width="28" height="32" viewBox="0 0 28 32"><title>cup</title><desc>Created with Avocode.</desc><defs id="SvgjsDefs1072"></defs><path id="SvgjsPath1073" d="M303.112 307.023L301.898 303.367C301.625 302.55100000000004 300.86100000000005 302 300 302H282C281.139 302 280.375 302.551 280.103 303.367L278.878 307.024C277.834 307.092 277 307.94 277 309V312C277 313.105 277.896 314 279 314H280.034C280.034 314.075 280.004 314.146 280.013 314.221L282.013 332.221C282.125 333.233 282.981 334 284 334H298C299.02 334 299.875 333.233 299.987 332.221L301.987 314.221C301.99600000000004 314.146 301.966 314.075 301.966 314H303C304.105 314 305 313.105 305 312V309C305 307.936 304.161 307.084 303.112 307.023ZM282 304H300L301 307H281ZM284 332L283.667 329H298.33299999999997L297.99999999999994 332ZM298.444 328H283.55600000000004L282.444 318H299.55600000000004ZM299.667 317H282.33299999999997L281.99999999999994 314H299.99999999999994ZM303 312H279V309H303Z " fill="#202728" fill-opacity="1" transform="matrix(1,0,0,1,-277,-302)"></path></svg>