<svg id="SvgjsSvg1104" xmlns="http://www.w3.org/2000/svg" version="1.1" xmlns:xlink="http://www.w3.org/1999/xlink" xmlns:svgjs="http://svgjs.com/svgjs" width="28" height="32" viewBox="0 0 28 32"><title>data</title><desc>Created with Avocode.</desc><defs id="SvgjsDefs1105"></defs><path id="SvgjsPath1106" d="M231 420C224.257 420 217 422.033 217 426.5V445.5C217 449.965 224.257 452 231 452C237.743 452 245 449.965 245 445.5V426.5C245 422.033 237.743 420 231 420ZM243 445.5C243 447.984 237.628 450 231 450C224.372 450 219 447.984 219 445.5V441.764C221.066 443.89300000000003 226.051 445 231 445C235.949 445 240.934 443.893 243 441.764ZM243 439.5H242.996C242.996 439.51 243 439.522 243 439.531C243 442 237.627 444 231 444C224.373 444 219 442 219 439.531C219 439.522 219.004 439.51 219.004 439.5H219V435.764C221.066 437.89300000000003 226.051 439 231 439C235.949 439 240.934 437.893 243 435.764ZM243 433.5H242.996C242.996 433.51 243 433.522 243 433.531C243 436 237.627 438 231 438C224.373 438 219 436 219 433.531C219 433.522 219.004 433.51 219.004 433.5H219V430.065C221.621 432.061 226.426 433 231 433C235.574 433 240.379 432.061 243 430.065ZM231 431C224.372 431 219 428.984 219 426.5C219 424.014 224.372 422 231 422C237.628 422 243 424.014 243 426.5C243 428.984 237.628 431 231 431ZM240 447C240.553 447 241 446.553 241 446C241 445.447 240.553 445 240 445C239.447 445 239 445.447 239 446C239 446.553 239.447 447 240 447ZM240 441C240.553 441 241 440.553 241 440C241 439.447 240.553 439 240 439C239.447 439 239 439.447 239 440C239 440.553 239.447 441 240 441ZM240 435C240.553 435 241 434.553 241 434C241 433.447 240.553 433 240 433C239.447 433 239 433.447 239 434C239 434.553 239.447 435 240 435Z " fill="#202728" fill-opacity="1" transform="matrix(1,0,0,1,-217,-420)"></path></svg>