<svg id="SvgjsSvg1053" xmlns="http://www.w3.org/2000/svg" version="1.1" xmlns:xlink="http://www.w3.org/1999/xlink" xmlns:svgjs="http://svgjs.com/svgjs" width="34" height="24" viewBox="0 0 34 24"><title>diamond</title><desc>Created with Avocode.</desc><defs id="SvgjsDefs1054"></defs><path id="SvgjsPath1055" d="M306.414 251.672L301.334 246.591C300.959 246.216 300.45 246.005 299.92 246.005H282.081C281.55100000000004 246.005 281.04200000000003 246.216 280.66700000000003 246.591L275.58700000000005 251.672C275.1940000000001 252.064 274.99800000000005 252.582 275.00000000000006 253.099C275.00300000000004 253.569 275.17100000000005 254.039 275.50600000000003 254.416L289.50500000000005 269.324C289.88500000000005 269.75100000000003 290.42900000000003 269.995 291.00000000000006 269.995C291.5710000000001 269.995 292.11500000000007 269.751 292.49500000000006 269.324L306.49500000000006 254.41600000000003C306.83700000000005 254.03100000000003 307.00500000000005 253.54800000000003 307.00000000000006 253.068C306.99600000000004 252.561 306.79900000000004 252.05700000000002 306.41400000000004 251.67200000000003ZM293.22 253.005H288.78000000000003L291.00000000000006 251.156ZM291.781 250.505L294.515 248.227L296.532 250.245L294 252.354ZM288 252.354L285.468 250.245L287.485 248.227L290.219 250.505ZM293.49 254.005L291 266.45799999999997L288.51 254.00499999999997ZM294.51 254.005H299.417L292.05699999999996 266.274ZM294.78 253.005L297.24199999999996 250.95499999999998L299.29299999999995 253.005ZM295.707 248.005H299.21999999999997L297.304 249.602ZM291 249.855L288.78 248.005H293.21999999999997ZM284.696 249.602L282.78000000000003 248.005H286.293ZM284.758 250.955L287.21999999999997 253.00500000000002H282.707ZM287.49 254.005L289.943 266.274L282.58299999999997 254.005ZM287.704 264.484L277.86400000000003 254.005H281.418ZM300.582 254.005H304.137L294.295 264.485ZM300.707 253.005L298.014 250.31199999999998L300.312 248.397L304.91900000000004 253.005ZM281.686 248.395L283.986 250.312L281.293 253.00500000000002H277.00600000000003Z " fill="#202728" fill-opacity="1" transform="matrix(1,0,0,1,-274,-246)"></path></svg>