<svg id="SvgjsSvg1056" xmlns="http://www.w3.org/2000/svg" version="1.1" xmlns:xlink="http://www.w3.org/1999/xlink" xmlns:svgjs="http://svgjs.com/svgjs" width="32" height="30" viewBox="0 0 32 30"><title>display</title><desc>Created with Avocode.</desc><defs id="SvgjsDefs1057"></defs><path id="SvgjsPath1058" d="M362 246.998L340 247.00199999999998C339.447 247.00199999999998 339 247.445 339 247.998V261.998C339 262.551 339.447 262.998 340 262.998H362C362.553 262.998 363 262.551 363 261.998V247.998C363 247.445 362.553 246.998 362 246.998ZM362 262.002H340V247.99800000000002H362ZM364 243.002H338C336.343 243.002 335 244.345 335 246.002V266.002C335 267.656 336.338 268.99600000000004 337.99 269.00100000000003H348V270.21700000000004L341.758 271.028C341.313 271.14000000000004 341 271.53900000000004 341 271.99800000000005C341 272.55100000000004 341.447 272.99800000000005 342 272.99800000000005H360C360.553 272.99800000000005 361 272.55100000000004 361 271.99800000000005C361 271.53900000000004 360.688 271.14000000000004 360.242 271.028L354 270.21700000000004V269.00100000000003H364.01C365.662 268.99600000000004 367 267.656 367 266.002V246.002C367 244.345 365.657 243.002 364 243.002ZM365 266.002C365 266.55400000000003 364.552 267.002 364 267.002H338C337.448 267.002 337 266.55400000000003 337 266.002V246.002C337 245.45000000000002 337.448 245.002 338 245.002H364C364.552 245.002 365 245.45000000000002 365 246.002Z " fill="#202728" fill-opacity="1" transform="matrix(1,0,0,1,-335,-243)"></path></svg>