<svg id="SvgjsSvg1062" xmlns="http://www.w3.org/2000/svg" version="1.1" xmlns:xlink="http://www.w3.org/1999/xlink" xmlns:svgjs="http://svgjs.com/svgjs" width="34" height="20" viewBox="0 0 34 20"><title>eye</title><desc>Created with Avocode.</desc><defs id="SvgjsDefs1063"></defs><path id="SvgjsPath1064" d="M126.974 317.78C126.96300000000001 317.738 126.96900000000001 317.693 126.953 317.652C126.947 317.635 126.933 317.625 126.926 317.61C126.916 317.58500000000004 126.918 317.559 126.905 317.536C123.998 311.985 117.673 308.007 111 308.007C104.327 308.007 98.0019 311.978 95.0949 317.529C95.0822 317.552 95.08409999999999 317.579 95.0744 317.603C95.0675 317.619 95.0529 317.628 95.0469 317.645C95.03129999999999 317.686 95.0372 317.731 95.0274 317.77299999999997C95.0098 317.84799999999996 94.9921 317.91999999999996 94.9921 317.99699999999996C94.9921 318.073 95.0098 318.145 95.0274 318.21999999999997C95.0372 318.26199999999994 95.0313 318.30699999999996 95.0469 318.34799999999996C95.0529 318.36499999999995 95.0675 318.37399999999997 95.0744 318.38999999999993C95.08409999999999 318.4149999999999 95.0822 318.4409999999999 95.0949 318.46399999999994C98.00189999999999 324.01499999999993 104.327 327.99299999999994 111 327.99299999999994C117.673 327.99299999999994 123.998 324.02199999999993 126.905 318.47099999999995C126.918 318.4479999999999 126.916 318.42099999999994 126.926 318.39699999999993C126.933 318.3809999999999 126.947 318.37199999999996 126.953 318.35499999999996C126.96900000000001 318.31399999999996 126.96300000000001 318.26899999999995 126.974 318.227C126.99000000000001 318.152 127.00800000000001 318.08 127.00800000000001 318.003C127.00800000000001 317.92699999999996 126.99000000000001 317.85499999999996 126.974 317.78ZM111 325.993C105.375 325.993 99.867 322.8 97.1223 317.998C99.88159999999999 313.188 105.38199999999999 310.007 111 310.007C116.625 310.007 122.133 313.2 124.878 318.002C122.118 322.812 116.618 325.993 111 325.993ZM111 314.002C110.998 314.002 110.996 314.003 110.994 314.003C108.786 314.007 106.995 315.794 106.995 318C106.995 318.276 107.21900000000001 318.5 107.49600000000001 318.5C107.772 318.5 107.99600000000001 318.276 107.99600000000001 318C107.99600000000001 316.347 109.343 315.002 111.00000000000001 315.002V315.002C111.27600000000001 315.002 111.50000000000001 314.778 111.50000000000001 314.502C111.50000000000001 314.226 111.27600000000001 314.002 111.00000000000001 314.002ZM110.977 311.003C107.10300000000001 311.003 103.96300000000001 314.137 103.96300000000001 318.003C103.96300000000001 321.87 107.10300000000001 325.003 110.977 325.003C114.85000000000001 325.003 117.99000000000001 321.87 117.99000000000001 318.003C117.99000000000001 314.137 114.85000000000001 311.003 110.977 311.003ZM110.977 324.003C107.662 324.003 104.965 321.312 104.965 318.003C104.965 314.695 107.662 312.003 110.977 312.003C114.292 312.003 116.988 314.695 116.988 318.003C116.988 321.312 114.292 324.003 110.977 324.003Z " fill="#202728" fill-opacity="1" transform="matrix(1,0,0,1,-94,-308)"></path></svg>