<svg id="SvgjsSvg1125" xmlns="http://www.w3.org/2000/svg" version="1.1" xmlns:xlink="http://www.w3.org/1999/xlink" xmlns:svgjs="http://svgjs.com/svgjs" width="24" height="32" viewBox="0 0 24 32"><title>fire</title><desc>Created with Avocode.</desc><defs id="SvgjsDefs1126"></defs><path id="SvgjsPath1127" d="M294.997 494C294.934 496.675 292.926 498.934 292.926 498.934C292.926 493.958 288.997 490 288.997 490C288.997 490 288.944 492.962 286.954 495.948C284.963 488.981 278.991 485 278.991 485C281.977 495.948 277.996 499.93 277.996 507.892C277.996 512.564 281.95 517 287.99699999999996 517C296.95399999999995 517 298.686 513.712 299.61199999999997 510.007C300.88699999999994 504.906 298.977 498.976 294.99699999999996 494ZM297.672 509.522C297.03000000000003 512.09 296.303 515 287.997 515C282.98900000000003 515 279.997 511.386 279.997 507.892C279.997 505.216 280.485 503.019 281.00100000000003 500.692C281.65700000000004 497.743 282.329 494.725 282.038 490.731C285.122 495 286.219 500.656 286.219 500.656C286.219 500.656 289.09 496.625 289.86199999999997 494.753C290.45399999999995 495.957 290.99699999999996 500 290.99699999999996 504C290.99699999999996 504 293.65299999999996 501.813 295.645 498.523C297.743 502.28400000000005 298.49899999999997 506.21700000000004 297.67199999999997 509.52200000000005ZM295.428 501.795L294.579 502.78000000000003C293.526 504.00800000000004 292.53000000000003 505.172 289.87 506.511C289.48900000000003 505.369 289.14300000000003 504.11100000000005 289.14300000000003 502.18800000000005V500.47800000000007L287.62600000000003 502.85600000000005C287.11400000000003 503.66700000000003 286.69000000000005 504.34000000000003 286.057 505.232C285.098 503.07000000000005 284.42 501.47200000000004 283.90500000000003 500.021L283.42600000000004 498.671L282.90700000000004 500.181C282.247 502.102 281.622 503.916 281.622 508.625C281.622 508.901 281.844 509.125 282.122 509.125C282.397 509.125 282.622 508.901 282.622 508.625C282.622 505.016 282.981 503.229 283.461 501.684C283.981 503.00600000000003 284.637 504.509 285.499 506.434L285.85 507.218L286.358 506.52500000000003C287.188 505.396 287.682 504.636 288.223 503.78200000000004C288.38100000000003 505.26200000000006 288.747 506.32200000000006 289.108 507.372L289.29 507.90000000000003L289.795 507.66100000000006C292.498 506.37700000000007 293.764 505.2080000000001 294.76800000000003 504.08600000000007C294.92400000000004 505.95000000000005 294.67800000000005 507.99000000000007 294.09400000000005 509.4390000000001C293.99100000000004 509.6940000000001 294.11600000000004 509.98500000000007 294.37200000000007 510.08900000000006C294.4320000000001 510.11300000000006 294.49700000000007 510.12500000000006 294.5590000000001 510.12500000000006C294.7560000000001 510.12500000000006 294.9440000000001 510.00700000000006 295.0220000000001 509.81200000000007C295.7970000000001 507.8880000000001 296.0300000000001 505.1480000000001 295.6140000000001 502.82900000000006Z " fill="#202728" fill-opacity="1" transform="matrix(1,0,0,1,-277,-485)"></path></svg>