<svg id="SvgjsSvg1119" xmlns="http://www.w3.org/2000/svg" version="1.1" xmlns:xlink="http://www.w3.org/1999/xlink" xmlns:svgjs="http://svgjs.com/svgjs" width="32" height="34" viewBox="0 0 32 34"><title>food</title><desc>Created with Avocode.</desc><defs id="SvgjsDefs1120"></defs><path id="SvgjsPath1121" d="M184.5 505.99H181.809C181.764 505.75 181.708 505.517 181.649 505.283L186.447 502.879C186.941 502.63100000000003 187.141 502.029 186.894 501.534C186.647 501.039 186.048 500.841 185.552 501.086L180.975 503.379C179.22799999999998 499.60400000000004 175.41899999999998 496.973 171 496.973C165.618 496.973 161.135 500.868 160.191 505.99H157.5C156.121 505.99 155 507.113 155 508.495C155 508.986 155.179 509.46 155.505 509.827L159 513.766V514.507C159 515.8879999999999 160.121 517.012 161.5 517.012H180.5C181.878 517.012 183 515.8879999999999 183 514.507V513.766L186.494 509.82699999999994C186.82 509.4599999999999 187 508.98599999999993 187 508.49499999999995C187 507.11299999999994 185.878 505.98999999999995 184.5 505.98999999999995ZM180.798 505.99H180.236L180.73499999999999 505.74C180.755 505.824 180.78099999999998 505.90500000000003 180.79799999999997 505.99ZM171 497.975C175.029 497.975 178.5 500.38 180.082 503.827L179.191 504.273C177.776 501.15200000000004 174.645 498.97700000000003 171 498.97700000000003C166.718 498.97700000000003 163.141 501.97600000000006 162.23 505.99H161.201C162.131 501.423 166.171 497.975 171 497.975ZM175.576 505.99C174.802 504.224 173.045 502.98400000000004 171 502.98400000000004C168.955 502.98400000000004 167.198 504.22400000000005 166.424 505.99H165.35C166.176 503.659 168.393 501.982 171 501.982C173.466 501.982 175.587 503.48100000000005 176.50900000000001 505.61600000000004L175.763 505.99000000000007ZM171 504.988C170.116 504.988 169.329 505.38 168.78 505.99H167.556C168.25 504.798 169.526 503.986 171 503.986C172.473 503.986 173.75 504.798 174.444 505.99H173.219C172.67 505.38 171.88299999999998 504.988 171 504.988ZM171 500.98C167.835 500.98 165.158 503.09700000000004 164.295 505.99H163.26299999999998C164.15499999999997 502.539 167.27999999999997 499.978 170.99999999999997 499.978C174.24699999999996 499.978 177.04299999999998 501.93 178.29499999999996 504.722L177.40199999999996 505.169C176.31499999999997 502.707 173.85599999999997 500.97999999999996 170.99999999999997 500.97999999999996ZM181 513.004V514.5070000000001C181 514.7840000000001 180.776 515.008 180.5 515.008H161.5C161.223 515.008 161 514.784 161 514.5070000000001V513.004L157 508.495C157 508.218 157.223 507.994 157.5 507.994H184.5C184.776 507.994 185 508.218 185 508.495ZM162.976 496.684C162.97899999999998 496.69 162.981 496.696 162.984 496.702C162.984 496.702 162.985 496.702 162.98600000000002 496.702C163.07000000000002 496.862 163.23600000000002 496.973 163.42900000000003 496.973C163.70700000000002 496.973 163.93200000000002 496.747 163.93200000000002 496.469C163.93200000000002 496.426 163.925 496.384 163.91400000000002 496.343C163.91600000000003 496.33700000000005 163.91600000000003 496.331 163.91400000000002 496.324C163.53900000000002 495.44 163.895 494.471 164.33300000000003 493.427C164.80600000000004 492.298 165.31300000000002 491.04600000000005 164.75500000000002 489.77200000000005C164.68300000000002 489.588 164.50700000000003 489.458 164.29900000000004 489.458C164.02800000000005 489.458 163.80800000000002 489.67800000000005 163.80800000000002 489.949C163.80800000000002 490.009 163.82100000000003 490.065 163.84000000000003 490.118C163.84100000000004 490.12 163.84100000000004 490.122 163.84200000000004 490.12399999999997C163.84300000000005 490.12699999999995 163.84400000000005 490.12999999999994 163.84500000000003 490.133C163.84600000000003 490.137 163.848 490.14099999999996 163.84900000000002 490.145C164.25300000000001 491.056 163.86300000000003 491.989 163.42200000000003 493.043C162.955 494.15500000000003 162.44000000000003 495.386 162.95900000000003 496.642C162.96500000000003 496.657 162.97000000000003 496.67 162.97600000000003 496.68399999999997ZM175.155 496.538C175.158 496.544 175.16 496.55 175.163 496.556C175.163 496.556 175.16400000000002 496.556 175.16500000000002 496.556C175.24900000000002 496.716 175.41500000000002 496.827 175.60800000000003 496.827C175.88500000000002 496.827 176.11100000000002 496.601 176.11100000000002 496.323C176.11100000000002 496.28 176.103 496.238 176.09300000000002 496.198C176.09500000000003 496.191 176.09500000000003 496.185 176.09300000000002 496.178C175.71800000000002 495.295 176.074 494.325 176.51100000000002 493.281C176.985 492.153 177.49200000000002 490.90000000000003 176.93300000000002 489.62600000000003C176.86200000000002 489.442 176.68500000000003 489.312 176.47700000000003 489.312C176.20700000000002 489.312 175.98700000000002 489.53200000000004 175.98700000000002 489.803C175.98700000000002 489.863 175.99900000000002 489.92 176.01900000000003 489.973C176.01900000000003 489.975 176.01900000000003 489.97700000000003 176.02000000000004 489.978C176.02100000000004 489.981 176.02200000000005 489.984 176.02400000000003 489.987C176.02500000000003 489.99100000000004 176.02700000000002 489.995 176.02800000000002 489.999C176.43200000000002 490.91 176.04100000000003 491.843 175.60000000000002 492.89700000000005C175.13400000000001 494.00900000000007 174.61800000000002 495.24100000000004 175.13800000000003 496.49600000000004C175.14300000000003 496.511 175.14900000000003 496.52400000000006 175.15500000000003 496.538ZM170.018 492.214C170.021 492.21999999999997 170.023 492.226 170.026 492.23199999999997C170.026 492.23199999999997 170.02700000000002 492.23199999999997 170.02800000000002 492.23199999999997C170.11200000000002 492.392 170.27800000000002 492.503 170.47100000000003 492.503C170.74900000000002 492.503 170.97400000000002 492.277 170.97400000000002 491.99899999999997C170.97400000000002 491.95599999999996 170.967 491.914 170.95600000000002 491.87399999999997C170.95800000000003 491.86699999999996 170.95800000000003 491.861 170.95600000000002 491.854C170.58100000000002 490.971 170.937 490.001 171.37500000000003 488.957C171.84800000000004 487.829 172.35500000000002 486.576 171.79700000000003 485.302C171.72500000000002 485.118 171.54900000000004 484.988 171.34100000000004 484.988C171.07000000000005 484.988 170.85000000000002 485.208 170.85000000000002 485.479C170.85000000000002 485.539 170.86300000000003 485.596 170.88200000000003 485.649C170.88300000000004 485.651 170.88300000000004 485.653 170.88400000000004 485.655C170.88500000000005 485.657 170.88500000000005 485.65999999999997 170.88700000000003 485.66299999999995C170.88800000000003 485.667 170.89000000000001 485.67099999999994 170.89100000000002 485.67499999999995C171.29500000000002 486.58599999999996 170.90500000000003 487.52 170.46400000000003 488.573C169.997 489.685 169.48200000000003 490.917 170.00100000000003 492.17199999999997C170.00700000000003 492.18699999999995 170.01200000000003 492.20099999999996 170.01800000000003 492.21399999999994Z " fill="#202728" fill-opacity="1" transform="matrix(1,0,0,1,-155,-484)"></path></svg>