<svg id="SvgjsSvg1008" xmlns="http://www.w3.org/2000/svg" version="1.1" xmlns:xlink="http://www.w3.org/1999/xlink" xmlns:svgjs="http://svgjs.com/svgjs" width="32" height="28" viewBox="0 0 32 28"><title>heart</title><desc>Created with Avocode.</desc><defs id="SvgjsDefs1009"></defs><path id="SvgjsPath1010" d="M124.192 125.792C120.562 122.20100000000001 114.761 122.125 111 125.505C107.24 122.125 101.439 122.201 97.8083 125.792C94.0671 129.492 94.0671 135.49 97.8083 139.191C98.8777 140.249 108.861 150.122 108.861 150.122C110.04400000000001 151.29100000000003 111.95700000000001 151.29100000000003 113.13900000000001 150.122C113.13900000000001 150.122 124.07100000000001 139.311 124.19200000000001 139.191C127.933 135.49 127.933 129.492 124.19200000000001 125.792ZM122.765 137.781L111.713 148.711C111.32 149.10000000000002 110.67899999999999 149.10000000000002 110.288 148.711L99.2351 137.781C96.28490000000001 134.864 96.28490000000001 130.119 99.2351 127.202C102.07900000000001 124.39 106.651 124.291 109.644 126.98L111 128.199L112.356 126.98000000000002C115.34899999999999 124.29100000000003 119.923 124.39000000000001 122.765 127.20200000000001C125.716 130.119 125.716 134.864 122.765 137.781ZM104.252 128.026C104.25 128.026 104.25 128.02700000000002 104.24799999999999 128.02700000000002C101.90299999999999 128.02900000000002 100.002 129.92800000000003 100.002 132.27100000000002V132.27100000000002C100.002 132.54700000000003 100.225 132.77100000000002 100.502 132.77100000000002C100.77799999999999 132.77100000000002 101.002 132.54700000000003 101.002 132.27100000000002V132.27C101.002 130.478 102.457 129.025 104.25099999999999 129.025H104.252C104.52799999999999 129.025 104.752 128.802 104.752 128.526C104.752 128.25 104.52799999999999 128.026 104.252 128.026Z " fill="#202728" fill-opacity="1" transform="matrix(1,0,0,1,-95,-123)"></path></svg>