<svg id="SvgjsSvg1029" xmlns="http://www.w3.org/2000/svg" version="1.1" xmlns:xlink="http://www.w3.org/1999/xlink" xmlns:svgjs="http://svgjs.com/svgjs" width="34" height="32" viewBox="0 0 34 32"><title>key</title><desc>Created with Avocode.</desc><defs id="SvgjsDefs1030"></defs><path id="SvgjsPath1031" d="M177.002 182C171.479 182 167.002 186.478 167.002 192C167.002 193.285 167.27100000000002 194.501 167.715 195.629L155.566 207.778C155.216 208.129 154.998 208.464 154.998 209V212C154.998 213.071 155.927 214 156.998 214H159.998C160.534 214 160.873 213.786 161.224 213.436L162.659 212H165.00199999999998C166.106 212 167.00199999999998 211.104 167.00199999999998 210V208H169.00199999999998C170.106 208 171.00199999999998 207.105 171.00199999999998 206V203.656L173.37199999999999 201.286C174.49999999999997 201.731 175.71599999999998 202 177.00199999999998 202C182.52399999999997 202 187.00199999999998 197.523 187.00199999999998 192C187.00199999999998 186.478 182.52399999999997 182 177.00199999999998 182ZM177.002 200C175.52100000000002 200 174.151 199.57 172.96200000000002 198.868L169.58800000000002 202.242C169.21300000000002 202.617 169.002 203.12599999999998 169.002 203.65599999999998V205.99999999999997H167.002C165.89700000000002 205.99999999999997 165.002 206.89599999999996 165.002 207.99999999999997V209.99999999999997H162.65900000000002C162.12900000000002 209.99999999999997 161.62000000000003 210.21099999999998 161.24500000000003 210.58599999999998L159.82700000000003 212.004L157.00200000000004 212L156.99900000000005 209.151L168.66400000000004 197.507C168.66400000000004 197.507 168.66400000000004 197.508 168.66500000000005 197.50900000000001L170.13400000000004 196.04000000000002C169.43200000000004 194.85100000000003 169.00200000000004 193.48000000000002 169.00200000000004 192.00000000000003C169.00200000000004 187.58200000000002 172.58400000000003 184.00000000000003 177.00200000000004 184.00000000000003C181.42000000000004 184.00000000000003 185.00200000000004 187.58200000000002 185.00200000000004 192.00000000000003C185.00200000000004 196.41800000000003 181.42000000000004 200.00000000000003 177.00200000000004 200.00000000000003ZM182.819 190.239C181.69699999999997 188.678 180.332 187.315 178.765 186.186C178.50799999999998 186.001 178.17899999999997 185.954 177.881 186.059C176.492 186.548 175.542 187.498 175.055 188.887C175.018 188.99 175 189.099 175 189.206C175 189.405 175.063 189.60299999999998 175.182 189.76999999999998C176.307 191.33399999999997 177.671 192.69699999999997 179.23399999999998 193.82199999999997C179.48999999999998 194.00599999999997 179.819 194.05399999999997 180.11599999999999 193.94999999999996C181.50599999999997 193.46399999999997 182.457 192.51299999999995 182.945 191.12199999999996C182.982 191.01899999999995 183 190.90999999999997 183 190.80299999999997C183 190.60399999999996 182.938 190.40599999999998 182.819 190.23899999999998ZM179.818 193.011C178.341 191.947 177.054 190.66 175.99800000000002 189.218C176.38500000000002 188.11499999999998 177.109 187.391 178.181 186.99699999999999C179.65900000000002 188.063 180.94400000000002 189.34599999999998 181.996 190.808C181.60600000000002 191.902 180.88400000000001 192.62199999999999 179.818 193.011Z " fill="#202728" fill-opacity="1" transform="matrix(1,0,0,1,-154,-182)"></path></svg>