<svg id="SvgjsSvg1116" xmlns="http://www.w3.org/2000/svg" version="1.1" xmlns:xlink="http://www.w3.org/1999/xlink" xmlns:svgjs="http://svgjs.com/svgjs" width="33" height="32" viewBox="0 0 33 32"><title>lab</title><desc>Created with Avocode.</desc><defs id="SvgjsDefs1117"></defs><path id="SvgjsPath1118" d="M115.682 488.732C115.21000000000001 488.26000000000005 114.58200000000001 488 113.914 488C113.246 488 112.619 488.26 112.146 488.733L110.734 490.146C110.261 490.617 110.00099999999999 491.245 110 491.914C110 492.385 110.129 492.836 110.371 493.228L96.7944 498.666C95.88669999999999 499.065 95.2354 499.884 95.0522 500.856C94.8677 501.832 95.1772 502.834 95.8867 503.542L108.607 516.122C109.155 516.67 109.883 516.981 110.652 516.9989999999999C110.669 516.9999999999999 110.711 516.9999999999999 110.729 516.9999999999999C110.931 516.9999999999999 111.135 516.9799999999999 111.339 516.9369999999999C112.332 516.7309999999999 113.147 516.0449999999998 113.516 515.1089999999999L118.857 501.73299999999995C119.261 501.99799999999993 119.732 502.14099999999996 120.226 502.14099999999996C120.894 502.14099999999996 121.523 501.87999999999994 121.993 501.407L123.401 500C123.877 499.526 124.14 498.898 124.14 498.227C124.14 497.556 123.877 496.92699999999996 123.407 496.459ZM111.658 514.367C111.535 514.6809999999999 111.261 514.911 110.932 514.9789999999999C110.85600000000001 514.9949999999999 110.779 515.002 110.703 514.9999999999999C110.449 514.9939999999999 110.205 514.8919999999999 110.021 514.7079999999999L97.293 502.11999999999983C97.0591 501.88699999999983 96.9561 501.5529999999998 97.0176 501.22699999999986C97.07860000000001 500.90299999999985 97.29690000000001 500.6299999999999 97.5991 500.49699999999984L103.816 498.00699999999983C108.006 499.39899999999983 112.196 498.0579999999998 116.386 502.5289999999998ZM121.992 498.58L120.57900000000001 499.993C120.38300000000001 500.19 120.06700000000001 500.19 119.87200000000001 499.993L118.10500000000002 498.227L116.79178000000002 501.51279C113.78185000000002 498.50799 110.72193000000001 498.129 107.96200000000002 497.79C107.07500000000002 497.68100000000004 106.21600000000002 497.567 105.37000000000002 497.38500000000005L113.86200000000002 493.98300000000006L112.14700000000002 492.26900000000006C111.95100000000002 492.07300000000004 111.95100000000002 491.75700000000006 112.14700000000002 491.56200000000007L113.56100000000002 490.14700000000005C113.75600000000001 489.951 114.07200000000002 489.951 114.26800000000001 490.14700000000005L121.99200000000002 497.87300000000005C122.18900000000002 498.06800000000004 122.18900000000002 498.38500000000005 121.99200000000002 498.58000000000004ZM116.79178 501.51279C116.79185 501.51286 116.79192 501.51293 116.792 501.513L116.671 501.815ZM111.5 506C112.878 506 114 504.879 114 503.5C114 502.121 112.878 501 111.5 501C110.122 501 109 502.121 109 503.5C109 504.879 110.122 506 111.5 506ZM111.5 502C112.329 502 113 502.672 113 503.5C113 504.328 112.329 505 111.5 505C110.671 505 110 504.328 110 503.5C110 502.672 110.671 502 111.5 502ZM124.5 485C123.122 485 122 486.121 122 487.5C122 488.879 123.122 490 124.5 490C125.878 490 127 488.879 127 487.5C127 486.121 125.878 485 124.5 485ZM124.5 489C123.671 489 123 488.328 123 487.5C123 486.672 123.671 486 124.5 486C125.329 486 126 486.672 126 487.5C126 488.328 125.329 489 124.5 489ZM103 502C103 503.103 103.897 504 105 504C106.103 504 107 503.103 107 502C107 500.898 106.103 500 105 500C103.897 500 103 500.898 103 502ZM105 501C105.552 501 106 501.447 106 502C106 502.553 105.552 503 105 503C104.448 503 104 502.553 104 502C104 501.447 104.448 501 105 501ZM108 509C108.552 509 109 508.553 109 508C109 507.447 108.552 507 108 507C107.448 507 107 507.447 107 508C107 508.553 107.448 509 108 509ZM124 492C123.448 492 123 492.447 123 493C123 493.553 123.448 494 124 494C124.552 494 125 493.553 125 493C125 492.447 124.552 492 124 492Z " fill="#202728" fill-opacity="1" transform="matrix(1,0,0,1,-94,-485)"></path></svg>