<svg id="SvgjsSvg1083" xmlns="http://www.w3.org/2000/svg" version="1.1" xmlns:xlink="http://www.w3.org/1999/xlink" xmlns:svgjs="http://svgjs.com/svgjs" width="32" height="32" viewBox="0 0 32 32"><title>like</title><desc>Created with Avocode.</desc><defs id="SvgjsDefs1084"></defs><path id="SvgjsPath1085" d="M184.164 371.471C182.915 371.14300000000003 179.975 371.147 175.676 371.034C175.88 370.09499999999997 175.926 369.25 175.926 367.748C175.926 364.15999999999997 173.313 361 171 361C169.367 361 168.021 362.335 168 363.976C167.978 365.99 167.356 369.469 164 371.23199999999997C163.754 371.36199999999997 163.05 371.70899999999995 162.947 371.755L162.95329 371.76034C162.43228000000002 371.32599999999996 161.72509000000002 371 161 371H158C156.346 371 155 372.345 155 374V390C155 391.655 156.346 393 158 393H161C162.19 393 163.186 392.282 163.668 391.274C163.68 391.278 163.701 391.283 163.715 391.285C163.781 391.303 163.858 391.32300000000004 163.954 391.348C163.972 391.35200000000003 163.981 391.354 164 391.36C164.576 391.502 165.685 391.76800000000003 168.055 392.313C168.56300000000002 392.428 171.246 393 174.02800000000002 393H179.49400000000003C181.16100000000003 393 182.36100000000002 392.36 183.07600000000002 391.073C183.08700000000002 391.053 183.31700000000004 390.604 183.50500000000002 389.996C183.64600000000002 389.539 183.69800000000004 388.893 183.52800000000002 388.23699999999997C184.60200000000003 387.498 184.94700000000003 386.383 185.17300000000003 385.657C185.54900000000004 384.465 185.43600000000004 383.57099999999997 185.17400000000004 382.93C185.77700000000004 382.36 186.29300000000003 381.49 186.51100000000002 380.164C186.645 379.342 186.50100000000003 378.496 186.12100000000004 377.792C186.68800000000005 377.15599999999995 186.94600000000003 376.356 186.97500000000005 375.616L186.98600000000005 375.407C186.99400000000006 375.275 187.00000000000006 375.19399999999996 187.00000000000006 374.906C187.00000000000006 373.642 186.12600000000006 372.032 184.16400000000004 371.471ZM162 390C162 390.553 161.553 391 161 391H158C157.447 391 157 390.553 157 390V374C157 373.447 157.447 373 158 373H161C161.553 373 162 373.447 162 374ZM184.978 375.535C184.95700000000002 376.02900000000005 184.75 377 183 377C181.5 377 181 377 181 377C180.724 377 180.5 377.223 180.5 377.5C180.5 377.776 180.724 378 181 378C181 378 181.438 378 182.938 378C184.438 378 184.635 379.244 184.53699999999998 379.844C184.41499999999996 380.59 184.06499999999997 382 182.37599999999998 382C180.688 382 179.99999999999997 382 179.99999999999997 382C179.72399999999996 382 179.49999999999997 382.223 179.49999999999997 382.5C179.49999999999997 382.776 179.72399999999996 383 179.99999999999997 383C179.99999999999997 383 181.18799999999996 383 181.96899999999997 383C183.65599999999998 383 183.50899999999996 384.287 183.26599999999996 385.055C182.94699999999997 386.065 182.75199999999995 387 180.62599999999998 387C179.90599999999998 387 178.99399999999997 387 178.99399999999997 387C178.71799999999996 387 178.49399999999997 387.223 178.49399999999997 387.5C178.49399999999997 387.776 178.71799999999996 388 178.99399999999997 388C178.99399999999997 388 179.68799999999996 388 180.56299999999996 388C181.65599999999995 388 181.70799999999997 389.035 181.59399999999997 389.407C181.46899999999997 389.813 181.32099999999997 390.114 181.31399999999996 390.127C181.01199999999997 390.672 180.52499999999998 391 179.49399999999997 391H174.02799999999996C171.28099999999995 391 168.55799999999996 390.377 168.48699999999997 390.362C164.33299999999997 389.40500000000003 164.11399999999998 389.33000000000004 163.85399999999996 389.25600000000003C163.85399999999996 389.25600000000003 163.00799999999995 389.11400000000003 163.00799999999995 388.37500000000006L162.99999999999994 374.56300000000005C162.99999999999994 374.09400000000005 163.29899999999995 373.67100000000005 163.79399999999995 373.5210000000001C163.85599999999997 373.49700000000007 163.93999999999994 373.47100000000006 163.99999999999994 373.4460000000001C168.56799999999996 371.5540000000001 169.95899999999995 367.40600000000006 169.99999999999994 364.00000000000006C170.00599999999994 363.5210000000001 170.37499999999994 363.00000000000006 170.99999999999994 363.00000000000006C172.05799999999994 363.00000000000006 173.92599999999993 365.12200000000007 173.92599999999993 367.74800000000005C173.92599999999993 370.119 173.83099999999993 370.52900000000005 172.99999999999994 373.00000000000006C182.99999999999994 373.00000000000006 182.92999999999995 373.14300000000003 183.81299999999993 373.37500000000006C184.90599999999992 373.68700000000007 184.99999999999994 374.59400000000005 184.99999999999994 374.90600000000006C184.99999999999994 375.2490000000001 184.98999999999995 375.19900000000007 184.97799999999995 375.5350000000001ZM159.5 387C158.672 387 158 387.672 158 388.5C158 389.328 158.672 390 159.5 390C160.328 390 161 389.328 161 388.5C161 387.672 160.328 387 159.5 387ZM159.5 389C159.225 389 159 388.776 159 388.5C159 388.225 159.225 388 159.5 388C159.775 388 160 388.225 160 388.5C160 388.776 159.775 389 159.5 389Z " fill="#202728" fill-opacity="1" transform="matrix(1,0,0,1,-155,-361)"></path></svg>