<svg id="SvgjsSvg1059" xmlns="http://www.w3.org/2000/svg" version="1.1" xmlns:xlink="http://www.w3.org/1999/xlink" xmlns:svgjs="http://svgjs.com/svgjs" width="26" height="32" viewBox="0 0 26 32"><title>location</title><desc>Created with Avocode.</desc><defs id="SvgjsDefs1060"></defs><path id="SvgjsPath1061" d="M51.001 319.746C54.3095 319.746 57.001 317.055 57.001 313.746C57.001 310.438 54.3095 307.746 51.001 307.746C47.6924 307.746 45.001 310.438 45.001 313.746C45.001 317.055 47.6924 319.746 51.001 319.746ZM51.001 308.746C53.7588 308.746 56.001 310.988 56.001 313.746C56.001 316.50399999999996 53.7588 318.746 51.001 318.746C48.2431 318.746 46.001 316.50399999999996 46.001 313.746C46.001 310.988 48.2431 308.746 51.001 308.746ZM51 302C44.3818 302 38.999 307.316 38.999 314.002C38.999 321.003 45 328.163 49.375 333.195C49.3916 333.215 50.0937 334 50.9619 334C50.9638 334 51.0351 334 51.0381 334C51.9062 334 52.6084 333.215 52.625 333.195C57.001 328.163 63.001 321.003 63.001 314.002C63.001 307.31600000000003 57.6181 302 51 302ZM51.1162 331.883C51.0957 331.902 51.0342 331.948 50.9814 331.98199999999997C50.9717 331.953 50.8974 331.895 50.8525 331.84799999999996C47.1875 327.631 40.998999999999995 320.51499999999993 40.998999999999995 314.00199999999995C40.998999999999995 308.48699999999997 45.48629999999999 303.99999999999994 50.99999999999999 303.99999999999994C56.514599999999994 303.99999999999994 61.00099999999999 308.48699999999997 61.00099999999999 314.00199999999995C61.00099999999999 320.51499999999993 54.81349999999999 327.631 51.11619999999999 331.8829999999999Z " fill="#202728" fill-opacity="1" transform="matrix(1,0,0,1,-38,-302)"></path></svg>