<svg id="SvgjsSvg1044" xmlns="http://www.w3.org/2000/svg" version="1.1" xmlns:xlink="http://www.w3.org/1999/xlink" xmlns:svgjs="http://svgjs.com/svgjs" width="24" height="32" viewBox="0 0 24 32"><title>lock</title><desc>Created with Avocode.</desc><defs id="SvgjsDefs1045"></defs><path id="SvgjsPath1046" d="M120 255V251C120 246.029 115.971 242 111 242C106.029 242 102 246.029 102 251V255C100.343 255 99 256.343 99 258V265C99 269.971 103.029 274 108 274H114C118.971 274 123 269.971 123 265V258C123 256.343 121.657 255 120 255ZM104 251C104 247.134 107.134 244 111 244C114.866 244 118 247.134 118 251V255H116V251.003C116 248.24099999999999 113.762 246.003 111 246.003C108.238 246.003 106 248.24099999999999 106 251.003V255H104ZM115 251V255H107V251C107 248.791 108.791 247 111 247C113.209 247 115 248.791 115 251ZM121 265C121 268.859 117.859 272 114 272H108C104.141 272 101 268.859 101 265V258C101 257.448 101.448 257 102 257C102.667 257 103.333 257 104 257H118C118.667 257 119.333 257 120 257C120.552 257 121 257.448 121 258ZM111 261C109.896 261 109 261.896 109 263C109 263.608 109.333 264.76 109.667 265.672C109.94 266.41400000000004 110.281 266.999 111 266.999C111.781 266.999 112.061 266.42 112.334 265.682C112.672 264.76800000000003 113 263.61 113 263C113 261.896 112.105 261 111 261Z " fill="#202728" fill-opacity="1" transform="matrix(1,0,0,1,-99,-242)"></path></svg>