<svg id="SvgjsSvg1080" xmlns="http://www.w3.org/2000/svg" version="1.1" xmlns:xlink="http://www.w3.org/1999/xlink" xmlns:svgjs="http://svgjs.com/svgjs" width="32" height="21" viewBox="0 0 32 21"><title>mail</title><desc>Created with Avocode.</desc><defs id="SvgjsDefs1081"></defs><path id="SvgjsPath1082" d="M123 367H99C96.791 367 95 368.791 95 371V384C95 386.209 96.791 388 99 388H123C125.209 388 127 386.209 127 384V371C127 368.791 125.209 367 123 367ZM97 372.25L103.999 377.5L97 382.75ZM123 386H99C97.8975 386 97 385.103 97 384L104.832 378.125L109.19999999999999 381.402C109.73299999999999 381.801 110.36599999999999 382.002 110.99999999999999 382.002C111.63399999999999 382.002 112.26699999999998 381.801 112.79999999999998 381.402L117.16799999999998 378.125L124.99999999999997 384C124.99999999999997 385.103 124.10299999999997 386 122.99999999999997 386ZM125 382.75L118.001 377.5L125 372.25ZM112.2 380.601C111.851 380.863 111.436 381.002 111 381.002C110.565 381.002 110.149 380.863 109.8 380.601L105.66499999999999 377.5L104.832 376.875L97 371.001V371C97 369.898 97.8975 369 99 369H123C124.103 369 125 369.898 125 371Z " fill="#202728" fill-opacity="1" transform="matrix(1,0,0,1,-95,-367)"></path></svg>