<svg id="SvgjsSvg1110" xmlns="http://www.w3.org/2000/svg" version="1.1" xmlns:xlink="http://www.w3.org/1999/xlink" xmlns:svgjs="http://svgjs.com/svgjs" width="32" height="32" viewBox="0 0 32 32"><title>megaphone</title><desc>Created with Avocode.</desc><defs id="SvgjsDefs1111"></defs><path id="SvgjsPath1112" d="M359 420C356.947 420 355.335 421.41 354.176 423.586L354.154 423.574C352.473 426.867 349.969 429 347.226 429H338C335.757 429 334 431.197 334 434C334 436.805 335.757 439 338 439C339.103 439.004 339.995 439.897 339.995 441V450C339.995 451.106 340.891 452 341.995 452H345.995C347.1 452 347.995 451.106 347.995 450V449C347.995 448 346.995 447.553 346.995 447V440C346.995 439.977 347.011 439.961 347.013 439.938C347.02299999999997 439.795 347.06199999999995 439.662 347.125 439.543C347.143 439.51 347.162 439.484 347.184 439.455C347.264 439.33599999999996 347.36400000000003 439.238 347.487 439.162C347.493 439.15799999999996 347.495 439.152 347.50100000000003 439.14799999999997C347.50500000000005 439.14799999999997 347.50800000000004 439.145 347.51200000000006 439.145C347.59200000000004 439.09999999999997 347.68800000000005 439.09 347.77700000000004 439.065C350.302 439.332 352.58700000000005 441.36899999999997 354.15400000000005 444.438L354.18100000000004 444.426C355.34000000000003 446.594 356.95000000000005 448 359.00000000000006 448C363.59600000000006 448 366.00000000000006 440.957 366.00000000000006 434C366.00000000000006 427.043 363.59600000000006 420 359.00000000000006 420ZM354 434C354 432.963 354.06 431.961 354.164 431H357C358.105 431 359 432.344 359 434C359 435.658 358.105 437 357 437H354.164C354.06 436.039 354 435.039 354 434ZM336 434C336 432.344 336.896 431 338 431H345.014C344.394 431.729 344 432.787 344 434C344 435.215 344.394 436.273 345.014 437H338C336.896 437 336 435.658 336 434ZM345.995 450H341.995V441C341.995 440.272 341.8 439.59 341.458 439H342.156V439.012H345.164C345.05699999999996 439.322 344.995 439.652 344.995 440V447C344.995 447.963 345.533 448.604 345.855 448.986C345.898 449.039 345.95000000000005 449.094 345.995 449.152ZM347.226 437.012H347V437C345.896 437 345 435.658 345 434C345 432.344 345.896 431 347 431H347.226C349.111 431 350.878 430.258 352.432 428.982C352.147 430.59200000000004 352 432.297 352 434C352 435.709 352.147 437.42 352.434 439.031C350.88000000000005 437.754 349.112 437.012 347.226 437.012ZM359 446C356.982 446 355.25 443.129 354.459 439H357C359.243 439 361 436.805 361 434C361 431.197 359.243 429 357 429H354.459C355.25 424.873 356.982 422 359 422C361.762 422 364 427.373 364 434C364 440.627 361.762 446 359 446Z " fill="#202728" fill-opacity="1" transform="matrix(1,0,0,1,-334,-420)"></path></svg>