<svg id="SvgjsSvg1107" xmlns="http://www.w3.org/2000/svg" version="1.1" xmlns:xlink="http://www.w3.org/1999/xlink" xmlns:svgjs="http://svgjs.com/svgjs" width="33" height="32" viewBox="0 0 33 32"><title>music</title><desc>Created with Avocode.</desc><defs id="SvgjsDefs1108"></defs><path id="SvgjsPath1109" d="M304.285 420.469C303.923 420.164 303.46700000000004 420 303 420C302.885 420 302.768 420.01 302.653 420.031L285.651 423.031C284.695 423.199 283.998 424.029 283.998 425V442.17C282.984 441.434 281.667 441 280.204 441C279.355 441 278.504 441.141 277.675 441.416C275.778 442.049 274.25600000000003 443.318 273.5 444.9C272.916 446.123 272.841 447.453 273.286 448.647C274.047 450.68399999999997 276.209 452 278.794 452C279.644 452 280.49399999999997 451.861 281.322 451.584C283.22 450.95300000000003 284.741 449.684 285.497 448.104C285.822 447.42199999999997 285.974 446.707 285.981 446H285.998V430C286.114 430 286.231 429.99 286.346 429.971L303 427.031V439.17C301.986 438.434 300.669 438 299.205 438C298.356 438 297.505 438.141 296.676 438.416C294.779 439.049 293.257 440.318 292.502 441.9C291.918 443.123 291.843 444.453 292.288 445.647C293.04900000000004 447.68399999999997 295.21000000000004 449 297.795 449C298.64500000000004 449 299.49600000000004 448.861 300.324 448.584C302.22200000000004 447.95300000000003 303.743 446.684 304.499 445.104C304.824 444.42199999999997 304.976 443.707 304.983 443H305V422C305 421.41 304.739 420.848 304.285 420.469ZM280.688 449.688C278.291 450.486 275.815 449.705 275.158 447.947C274.5 446.188 275.909 444.113 278.305 443.315C280.701 442.516 283.178 443.295 283.834 445.055C284.492 446.815 283.084 448.889 280.688 449.688ZM299.653 446.688C297.255 447.486 294.779 446.705 294.122 444.947C293.464 443.188 294.873 441.113 297.269 440.315C299.666 439.516 302.14300000000003 440.295 302.799 442.055C303.457 443.815 302.049 445.889 299.65299999999996 446.688ZM302.96 425L285.95799999999997 428V425L302.96 422Z " fill="#202728" fill-opacity="1" transform="matrix(1,0,0,1,-272,-420)"></path></svg>