<svg id="SvgjsSvg1077" xmlns="http://www.w3.org/2000/svg" version="1.1" xmlns:xlink="http://www.w3.org/1999/xlink" xmlns:svgjs="http://svgjs.com/svgjs" width="32" height="32" viewBox="0 0 32 32"><title>news</title><desc>Created with Avocode.</desc><defs id="SvgjsDefs1078"></defs><path id="SvgjsPath1079" d="M64 361H42C40.3428 361 39 362.343 39 364V366H38C36.3428 366 35 367.343 35 369V389C35 391.209 36.791 393 39 393H63C65.209 393 67 391.209 67 389V364C67 362.343 65.6572 361 64 361ZM65 389C65 390.102 64.1025 391 63 391H39C37.8975 391 37 390.102 37 389V369C37 368.448 37.4482 368 38 368H39V388C39 388.553 39.4473 389 40 389C40.5527 389 41 388.553 41 388V364C41 363.448 41.4482 363 42 363H64C64.5518 363 65 363.448 65 364ZM54.499 374.006H62.499C62.775400000000005 374.006 62.999 373.782 62.999 373.506C62.999 373.229 62.775400000000005 373.006 62.499 373.006H54.499C54.2227 373.006 53.999 373.229 53.999 373.506C53.999 373.782 54.2227 374.006 54.499 374.006ZM54.499 371.006H62.499C62.775400000000005 371.006 62.999 370.782 62.999 370.506C62.999 370.229 62.775400000000005 370.006 62.499 370.006H54.499C54.2227 370.006 53.999 370.229 53.999 370.506C53.999 370.782 54.2227 371.006 54.499 371.006ZM54.499 368.006H62.499C62.775400000000005 368.006 62.999 367.782 62.999 367.506C62.999 367.229 62.775400000000005 367.006 62.499 367.006H54.499C54.2227 367.006 53.999 367.229 53.999 367.506C53.999 367.782 54.2227 368.006 54.499 368.006ZM51.5 388.004H43.5C43.2236 388.004 43 388.22900000000004 43 388.504C43 388.78200000000004 43.2236 389.004 43.5 389.004H51.5C51.7764 389.004 52 388.78200000000004 52 388.504C52 388.22900000000004 51.7764 388.004 51.5 388.004ZM51.5 385.004H43.5C43.2236 385.004 43 385.22900000000004 43 385.504C43 385.78200000000004 43.2236 386.004 43.5 386.004H51.5C51.7764 386.004 52 385.78200000000004 52 385.504C52 385.22900000000004 51.7764 385.004 51.5 385.004ZM51.5 382.004H43.5C43.2236 382.004 43 382.22900000000004 43 382.504C43 382.78200000000004 43.2236 383.004 43.5 383.004H51.5C51.7764 383.004 52 382.78200000000004 52 382.504C52 382.22900000000004 51.7764 382.004 51.5 382.004ZM62.5 388.004H54.5C54.2236 388.004 54 388.22900000000004 54 388.504C54 388.78200000000004 54.2236 389.004 54.5 389.004H62.5C62.7764 389.004 63 388.78200000000004 63 388.504C63 388.22900000000004 62.7764 388.004 62.5 388.004ZM62.5 385.004H54.5C54.2236 385.004 54 385.22900000000004 54 385.504C54 385.78200000000004 54.2236 386.004 54.5 386.004H62.5C62.7764 386.004 63 385.78200000000004 63 385.504C63 385.22900000000004 62.7764 385.004 62.5 385.004ZM62.5 382.004H54.5C54.2236 382.004 54 382.22900000000004 54 382.504C54 382.78200000000004 54.2236 383.004 54.5 383.004H62.5C62.7764 383.004 63 382.78200000000004 63 382.504C63 382.22900000000004 62.7764 382.004 62.5 382.004ZM62.5 376.005H43.5C43.2236 376.005 43 376.228 43 376.505C43 376.781 43.2236 377.005 43.5 377.005H62.5C62.7764 377.005 63 376.781 63 376.505C63 376.228 62.7764 376.005 62.5 376.005ZM62.5 379.004H43.5C43.2236 379.004 43 379.22900000000004 43 379.504C43 379.78200000000004 43.2236 380.004 43.5 380.004H62.5C62.7764 380.004 63 379.78200000000004 63 379.504C63 379.22900000000004 62.7764 379.004 62.5 379.004ZM44 374H51C51.5527 374 52 373.552 52 373V366.005C52 365.452 51.5527 365.005 51 365.005H44C43.4473 365.005 43 365.452 43 366.005V373C43 373.552 43.4473 374 44 374ZM45 367H50V372H45Z " fill="#202728" fill-opacity="1" transform="matrix(1,0,0,1,-35,-361)"></path></svg>