<svg id="SvgjsSvg1089" xmlns="http://www.w3.org/2000/svg" version="1.1" xmlns:xlink="http://www.w3.org/1999/xlink" xmlns:svgjs="http://svgjs.com/svgjs" width="32" height="30" viewBox="0 0 32 30"><title>note</title><desc>Created with Avocode.</desc><defs id="SvgjsDefs1090"></defs><path id="SvgjsPath1091" d="M306.414 368.586L300.414 362.586C300.039 362.211 299.53 362 299 362H278C276.346 362 275 363.345 275 365V389C275 390.655 276.346 392 278 392H304C305.654 392 307 390.655 307 389V370C307 369.469 306.789 368.961 306.414 368.586ZM305 389C305 389.553 304.553 390 304 390H278C277.447 390 277 389.553 277 389V365C277 364.447 277.447 364 278 364H298V368H297.999C297.999 369.657 299.34200000000004 371 300.999 371H305ZM300.999 370C299.89700000000005 370 298.999 369.102 298.999 368H299V364L305 370ZM290.5 369H295.5C295.776 369 296 368.776 296 368.5C296 368.223 295.776 368 295.5 368H290.5C290.224 368 290 368.223 290 368.5C290 368.776 290.224 369 290.5 369ZM290.5 372H295.5C295.776 372 296 371.776 296 371.5C296 371.223 295.776 371 295.5 371H290.5C290.224 371 290 371.223 290 371.5C290 371.776 290.224 372 290.5 372ZM290 374.5C290 374.776 290.224 375 290.5 375H302.5C302.776 375 303 374.776 303 374.5C303 374.223 302.776 374 302.5 374H290.5C290.224 374 290 374.223 290 374.5ZM302.5 380H279.5C279.224 380 279 380.223 279 380.5C279 380.776 279.224 381 279.5 381H302.5C302.776 381 303 380.776 303 380.5C303 380.223 302.776 380 302.5 380ZM302.5 383H279.5C279.224 383 279 383.223 279 383.5C279 383.776 279.224 384 279.5 384H302.5C302.776 384 303 383.776 303 383.5C303 383.223 302.776 383 302.5 383ZM302.5 386H279.5C279.224 386 279 386.223 279 386.5C279 386.776 279.224 387 279.5 387H302.5C302.776 387 303 386.776 303 386.5C303 386.223 302.776 386 302.5 386ZM302.5 377H279.5C279.224 377 279 377.223 279 377.5C279 377.776 279.224 378 279.5 378H302.5C302.776 378 303 377.776 303 377.5C303 377.223 302.776 377 302.5 377ZM280 375H287C287.553 375 288 374.552 288 374V368C288 367.447 287.553 367 287 367H280C279.447 367 279 367.447 279 368V374C279 374.552 279.447 375 280 375ZM281 369H286V373H281Z " fill="#202728" fill-opacity="1" transform="matrix(1,0,0,1,-275,-362)"></path></svg>