<svg id="SvgjsSvg1095" xmlns="http://www.w3.org/2000/svg" version="1.1" xmlns:xlink="http://www.w3.org/1999/xlink" xmlns:svgjs="http://svgjs.com/svgjs" width="32" height="32" viewBox="0 0 32 32"><title>paperplane</title><desc>Created with Avocode.</desc><defs id="SvgjsDefs1096"></defs><path id="SvgjsPath1097" d="M66.5428 420.16C66.3777 420.053 66.1883 420 65.9998 420C65.8064 420 65.61309999999999 420.055 65.4451 420.168L35.4451 440.168C35.1365 440.373 34.9666 440.734 35.0057 441.104C35.043699999999994 441.473 35.284 441.791 35.6286 441.928L43.4529 445.05899999999997L47.1316 451.496C47.3074 451.805 47.6346 451.996 47.9891 452C47.993 452 47.9959 452 47.9997 452C48.3504 452 48.6765 451.815 48.8572 451.514L50.9344 448.051L60.628699999999995 451.928C60.7478 451.977 60.873799999999996 452 60.9997 452C61.1697 452 61.338699999999996 451.957 61.489999999999995 451.871C61.753699999999995 451.72299999999996 61.936299999999996 451.46299999999997 61.98609999999999 451.164L66.9861 421.164C67.0516 420.772 66.87769999999999 420.377 66.5428 420.15999999999997ZM38.1365 440.777L61.3113 425.32599999999996L44.46170000000001 443.36299999999994C44.372800000000005 443.3109999999999 44.29370000000001 443.23999999999995 44.19610000000001 443.20099999999996ZM45.1893 444.066C45.1873 444.063 45.1843 444.061 45.1824 444.05699999999996L64.1248 423.78099999999995L47.9764 448.9429999999999ZM60.2176 449.609L51.67659999999999 446.193C51.4725 446.113 51.261399999999995 446.08599999999996 51.052499999999995 446.07399999999996L64.2049 425.68499999999995Z " fill="#202728" fill-opacity="1" transform="matrix(1,0,0,1,-35,-420)"></path></svg>