<svg id="SvgjsSvg1098" xmlns="http://www.w3.org/2000/svg" version="1.1" xmlns:xlink="http://www.w3.org/1999/xlink" xmlns:svgjs="http://svgjs.com/svgjs" width="32" height="32" viewBox="0 0 32 32"><title>params</title><desc>Created with Avocode.</desc><defs id="SvgjsDefs1099"></defs><path id="SvgjsPath1100" d="M103 426.022V423C103 421.346 101.654 420 100 420C98.3457 420 97 421.346 97 423V426.022C95.792 426.935 95 428.36899999999997 95 430C95 431.631 95.792 433.065 97 433.977V449C97 450.654 98.3457 452 100 452C101.654 452 103 450.654 103 449V433.977C104.208 433.065 105 431.631 105 430C105 428.369 104.208 426.935 103 426.022ZM99 423C99 422.447 99.4473 422 100 422C100.553 422 101 422.447 101 423V425.1C100.677 425.035 100.343 425 100 425C99.6572 425 99.3232 425.035 99 425.1ZM101 449C101 449.553 100.553 450 100 450C99.4473 450 99 449.553 99 449V434.898C99.3232 434.96500000000003 99.6572 435 100 435C100.343 435 100.677 434.965 101 434.898ZM102.865 430.84C102.85 430.893 102.835 430.945 102.81599999999999 430.998C102.722 431.262 102.6 431.512 102.439 431.734C102.43499999999999 431.73999999999995 102.42899999999999 431.74399999999997 102.425 431.75C102.25099999999999 431.988 102.044 432.199 101.809 432.377C101.80499999999999 432.38100000000003 101.80199999999999 432.383 101.79899999999999 432.385C101.55799999999999 432.566 101.28899999999999 432.71299999999997 100.99999999999999 432.815C100.68599999999999 432.928 100.35199999999999 433 99.99999999999999 433C99.64749999999998 433 99.31449999999998 432.928 98.99999999999999 432.815C98.71089999999998 432.713 98.44239999999999 432.566 98.20119999999999 432.385C98.19819999999999 432.383 98.19529999999999 432.381 98.19139999999999 432.377C97.95609999999999 432.199 97.74899999999998 431.988 97.57519999999998 431.75C97.57129999999998 431.744 97.56539999999998 431.74 97.56149999999998 431.734C97.40039999999998 431.512 97.27829999999999 431.262 97.18359999999998 430.998C97.16499999999998 430.945 97.15039999999999 430.893 97.13479999999998 430.84C97.05469999999998 430.572 96.99999999999999 430.29299999999995 96.99999999999999 430C96.99999999999999 429.705 97.05469999999998 429.426 97.13479999999998 429.158C97.15039999999999 429.106 97.16499999999998 429.053 97.18359999999998 429.002C97.27829999999999 428.738 97.40039999999999 428.488 97.56149999999998 428.264C97.56539999999998 428.25800000000004 97.57129999999998 428.254 97.57519999999998 428.248C97.74899999999998 428.012 97.95609999999998 427.799 98.19139999999999 427.621C98.19529999999999 427.61899999999997 98.19819999999999 427.615 98.20119999999999 427.613C98.44239999999999 427.434 98.71089999999998 427.287 98.99999999999999 427.184C99.31449999999998 427.072 99.64749999999998 427 99.99999999999999 427C100.35199999999999 427 100.68599999999999 427.072 100.99999999999999 427.184C101.28899999999999 427.28700000000003 101.55799999999999 427.434 101.79899999999999 427.613C101.80199999999999 427.615 101.80499999999999 427.61899999999997 101.809 427.621C102.044 427.799 102.25099999999999 428.012 102.425 428.248C102.429 428.25399999999996 102.435 428.258 102.439 428.264C102.6 428.488 102.722 428.738 102.81599999999999 429.002C102.835 429.053 102.85 429.106 102.865 429.158C102.945 429.426 103 429.70500000000004 103 430C103 430.293 102.945 430.572 102.865 430.84ZM125 426.022V423C125 421.346 123.654 420 122 420C120.346 420 119 421.346 119 423V426.022C117.792 426.935 117 428.36899999999997 117 430C117 431.631 117.792 433.065 119 433.977V449C119 450.654 120.346 452 122 452C123.654 452 125 450.654 125 449V433.977C126.208 433.065 127 431.631 127 430C127 428.369 126.208 426.935 125 426.022ZM121 423C121 422.447 121.447 422 122 422C122.553 422 123 422.447 123 423V425.1C122.677 425.035 122.343 425 122 425C121.657 425 121.323 425.035 121 425.1ZM123 449C123 449.553 122.553 450 122 450C121.447 450 121 449.553 121 449V434.898C121.323 434.96500000000003 121.657 435 122 435C122.343 435 122.677 434.965 123 434.898ZM124.865 430.84C124.85 430.893 124.835 430.945 124.81599999999999 430.998C124.722 431.262 124.6 431.512 124.439 431.734C124.43499999999999 431.73999999999995 124.42899999999999 431.74399999999997 124.425 431.75C124.25099999999999 431.988 124.044 432.199 123.809 432.377C123.80499999999999 432.38100000000003 123.80199999999999 432.383 123.79899999999999 432.385C123.55799999999999 432.566 123.28899999999999 432.71299999999997 122.99999999999999 432.815C122.68599999999999 432.928 122.35299999999998 433 121.99999999999999 433C121.64799999999998 433 121.31499999999998 432.928 120.99999999999999 432.815C120.71099999999998 432.713 120.44199999999998 432.566 120.20099999999998 432.385C120.19799999999998 432.383 120.19499999999998 432.381 120.19099999999997 432.377C119.95599999999997 432.199 119.74899999999998 431.988 119.57499999999997 431.75C119.57099999999997 431.744 119.56499999999997 431.74 119.56199999999997 431.734C119.39999999999996 431.512 119.27799999999996 431.262 119.18399999999997 430.998C119.16499999999996 430.945 119.14999999999996 430.893 119.13499999999996 430.84C119.05499999999996 430.572 118.99999999999996 430.29299999999995 118.99999999999996 430C118.99999999999996 429.705 119.05499999999996 429.426 119.13499999999996 429.158C119.14999999999996 429.106 119.16499999999996 429.053 119.18399999999997 429.002C119.27799999999996 428.738 119.39999999999996 428.488 119.56199999999997 428.264C119.56499999999997 428.25800000000004 119.57099999999997 428.254 119.57499999999997 428.248C119.74899999999998 428.012 119.95599999999997 427.799 120.19099999999997 427.621C120.19499999999998 427.61899999999997 120.19799999999998 427.615 120.20099999999998 427.613C120.44199999999998 427.434 120.71099999999998 427.287 120.99999999999999 427.184C121.31499999999998 427.072 121.64799999999998 427 121.99999999999999 427C122.35299999999998 427 122.68599999999999 427.072 122.99999999999999 427.184C123.28899999999999 427.28700000000003 123.55799999999999 427.434 123.79899999999999 427.613C123.80199999999999 427.615 123.80499999999999 427.61899999999997 123.809 427.621C124.044 427.799 124.25099999999999 428.012 124.425 428.248C124.429 428.25399999999996 124.435 428.258 124.439 428.264C124.6 428.488 124.722 428.738 124.81599999999999 429.002C124.835 429.053 124.85 429.106 124.865 429.158C124.945 429.426 125 429.70500000000004 125 430C125 430.293 124.945 430.572 124.865 430.84ZM114 438.022V423C114 421.346 112.654 420 111 420C109.346 420 108 421.346 108 423V438.022C106.792 438.936 106 440.36899999999997 106 442C106 443.631 106.792 445.065 108 445.977V449C108 450.654 109.346 452 111 452C112.654 452 114 450.654 114 449V445.977C115.208 445.065 116 443.631 116 442C116 440.369 115.208 438.936 114 438.022ZM110 423C110 422.447 110.447 422 111 422C111.553 422 112 422.447 112 423V437.1C111.677 437.035 111.343 437 111 437C110.657 437 110.323 437.035 110 437.1ZM112 449C112 449.553 111.553 450 111 450C110.447 450 110 449.553 110 449V446.898C110.323 446.96500000000003 110.657 447 111 447C111.343 447 111.677 446.965 112 446.898ZM113.865 442.84C113.85 442.893 113.835 442.945 113.81599999999999 442.998C113.722 443.262 113.6 443.512 113.439 443.734C113.43499999999999 443.73999999999995 113.42899999999999 443.74399999999997 113.425 443.75C113.25099999999999 443.988 113.044 444.199 112.809 444.377C112.80499999999999 444.38100000000003 112.80199999999999 444.383 112.79899999999999 444.385C112.55799999999999 444.566 112.28899999999999 444.71299999999997 111.99999999999999 444.815C111.68599999999999 444.928 111.35299999999998 445 110.99999999999999 445C110.64799999999998 445 110.31499999999998 444.928 109.99999999999999 444.815C109.71099999999998 444.713 109.44199999999998 444.566 109.20099999999998 444.385C109.19799999999998 444.383 109.19499999999998 444.381 109.19099999999997 444.377C108.95599999999997 444.199 108.74899999999998 443.988 108.57499999999997 443.75C108.57099999999997 443.744 108.56499999999997 443.74 108.56199999999997 443.734C108.39999999999996 443.512 108.27799999999996 443.262 108.18399999999997 442.998C108.16499999999996 442.945 108.14999999999996 442.893 108.13499999999996 442.84C108.05499999999996 442.572 107.99999999999996 442.29299999999995 107.99999999999996 442C107.99999999999996 441.705 108.05499999999996 441.426 108.13499999999996 441.158C108.14999999999996 441.106 108.16499999999996 441.053 108.18399999999997 441.002C108.27799999999996 440.738 108.39999999999996 440.488 108.56199999999997 440.264C108.56499999999997 440.25800000000004 108.57099999999997 440.254 108.57499999999997 440.248C108.74899999999998 440.012 108.95599999999997 439.799 109.19099999999997 439.621C109.19499999999998 439.61899999999997 109.19799999999998 439.615 109.20099999999998 439.613C109.44199999999998 439.434 109.71099999999998 439.287 109.99999999999999 439.184C110.31499999999998 439.072 110.64799999999998 439 110.99999999999999 439C111.35299999999998 439 111.68599999999999 439.072 111.99999999999999 439.184C112.28899999999999 439.28700000000003 112.55799999999999 439.434 112.79899999999999 439.613C112.80199999999999 439.615 112.80499999999999 439.61899999999997 112.809 439.621C113.044 439.799 113.25099999999999 440.012 113.425 440.248C113.429 440.25399999999996 113.435 440.258 113.439 440.264C113.6 440.488 113.722 440.738 113.81599999999999 441.002C113.835 441.053 113.85 441.106 113.865 441.158C113.945 441.426 114 441.70500000000004 114 442C114 442.293 113.945 442.572 113.865 442.84Z " fill="#202728" fill-opacity="1" transform="matrix(1,0,0,1,-95,-420)"></path></svg>