<svg id="SvgjsSvg1050" xmlns="http://www.w3.org/2000/svg" version="1.1" xmlns:xlink="http://www.w3.org/1999/xlink" xmlns:svgjs="http://svgjs.com/svgjs" width="32" height="32" viewBox="0 0 32 32"><title>pen</title><desc>Created with Avocode.</desc><defs id="SvgjsDefs1051"></defs><path id="SvgjsPath1052" d="M244.396 244.58C242.75 242.93800000000002 240.58499999999998 242 238.44899999999998 242C236.64899999999997 242 234.98999999999998 242.668 233.77999999999997 243.877L228.91299999999998 248.781C228.898 248.79500000000002 228.88099999999997 248.805 228.86599999999999 248.81900000000002C228.85799999999998 248.82700000000003 228.85399999999998 248.83800000000002 228.84599999999998 248.846L228.84799999999998 248.848L218.51799999999997 259.25600000000003C218.04199999999997 259.72900000000004 217.69599999999997 260.31800000000004 217.50499999999997 260.961L215.15599999999998 269.469C215.153 269.492 214.99999999999997 270.161 214.99999999999997 270.5C214.99999999999997 272.433 216.56899999999996 274 218.50499999999997 274C218.88999999999996 274 219.63499999999996 273.816 219.66199999999998 273.813L228.14 271.584C228.783 271.39300000000003 229.369 271.045 229.845 270.568L245.107 255.18599999999998C247.884 252.40599999999998 247.571 247.74999999999997 244.396 244.57999999999998ZM231.015 265.796C230.933 264.893 230.678 264.008 230.296 263.168L239.75 253.715C240.328 255.541 240.032 257.451 238.765 258.719C238.75699999999998 258.727 238.74699999999999 258.731 238.73899999999998 258.739L238.75199999999998 258.75199999999995L231.02399999999997 266.54099999999994C231.02499999999998 266.29299999999995 231.03699999999998 266.0489999999999 231.015 265.79599999999994ZM229.794 262.256C229.42100000000002 261.643 228.997 261.05199999999996 228.472 260.527C227.86 259.916 227.15900000000002 259.43899999999996 226.428 259.03499999999997L235.96 249.50399999999996C236.70700000000002 249.83599999999996 237.425 250.30899999999997 238.05800000000002 250.94099999999997C238.598 251.48099999999997 239.01700000000002 252.08399999999997 239.33800000000002 252.71199999999996ZM225.486 258.563C224.56099999999998 258.18899999999996 223.59 257.977 222.618 257.964L230.321 250.202C231.5 249.052 233.218 248.721 234.909 249.141ZM219.168 271.873C219.059 271.89799999999997 218.72 271.984 218.489 272C217.667 271.991 217 271.322 217 270.5C217.012 270.333 217.079 270.044 217.102 269.937L218.154 266.123C219.297 266.092 220.527 266.537 221.494 267.506C222.477 268.48699999999997 222.939 269.741 222.888 270.897ZM223.874 270.637C223.85 269.296 223.304 267.899 222.202 266.8C221.16 265.75600000000003 219.797 265.154 218.437 265.101L219.43300000000002 261.493C219.50500000000002 261.253 219.64800000000002 261.017 219.823 260.80899999999997C221.829 259.373 224.91400000000002 259.79699999999997 227.05800000000002 261.941C229.324 264.20799999999997 229.675 267.527 227.92900000000003 269.51C227.81300000000002 269.57 227.69500000000002 269.629 227.56900000000002 269.667ZM243.692 253.773L242.008 255.47C242.008 255.244 242.035 255.026 242.01500000000001 254.796C241.83900000000003 252.861 240.936 250.98999999999998 239.472 249.527C237.84300000000002 247.898 235.68200000000002 246.962 233.543 246.956L235.20000000000002 245.286C236.02700000000002 244.459 237.18400000000003 244 238.449 244C240.06 244 241.71200000000002 244.728 242.982 245.995C244.176 247.187 244.888 248.666 244.988 250.163C245.082 251.561 244.62199999999999 252.842 243.692 253.77300000000002Z " fill="#202728" fill-opacity="1" transform="matrix(1,0,0,1,-215,-242)"></path></svg>