<svg id="SvgjsSvg1074" xmlns="http://www.w3.org/2000/svg" version="1.1" xmlns:xlink="http://www.w3.org/1999/xlink" xmlns:svgjs="http://svgjs.com/svgjs" width="22" height="33" viewBox="0 0 22 33"><title>phone</title><desc>Created with Avocode.</desc><defs id="SvgjsDefs1075"></defs><path id="SvgjsPath1076" d="M359 302H343C341.343 302 340 303.343 340 305.001V331.001C340 332.65799999999996 341.343 334.001 343 334.001L359 333.99899999999997C360.657 333.99899999999997 362 332.657 362 330.99999999999994V304.99999999999994C362 303.3419999999999 360.657 301.99999999999994 359 301.99999999999994ZM360 331C360 331.551 359.552 332 359 332L343 332.001C342.448 332.001 342 331.55199999999996 342 331.001V328.99699999999996L360 328.996ZM360 327.996L342 327.99699999999996V308.001L360 307.99899999999997ZM360 307H342V305.001C342 304.44899999999996 342.448 304.001 343 304.001L359 303.99899999999997C359.552 303.99899999999997 360 304.448 360 304.99999999999994ZM353 305.499C353 305.776 352.776 306 352.5 306H349.5C349.224 306 349 305.776 349 305.499V305.499C349 305.223 349.224 305 349.5 305H352.5C352.776 305 353 305.223 353 305.499ZM352 330.496C352 330.772 351.776 330.996 351.5 330.996H350.5C350.224 330.996 350 330.772 350 330.496V330.496C350 330.219 350.224 329.996 350.5 329.996H351.5C351.776 329.996 352 330.219 352 330.496Z " fill="#202728" fill-opacity="1" transform="matrix(1,0,0,1,-340,-302)"></path></svg>