<svg id="SvgjsSvg1086" xmlns="http://www.w3.org/2000/svg" version="1.1" xmlns:xlink="http://www.w3.org/1999/xlink" xmlns:svgjs="http://svgjs.com/svgjs" width="30" height="32" viewBox="0 0 30 32"><title>photo</title><desc>Created with Avocode.</desc><defs id="SvgjsDefs1087"></defs><path id="SvgjsPath1088" d="M242 361H220C217.791 361 216 362.791 216 365V389C216 391.209 217.791 393 220 393H242C244.209 393 246 391.209 246 389V365C246 362.791 244.209 361 242 361ZM244 389C244 390.102 243.103 391 242 391H220C218.898 391 218 390.102 218 389V365C218 363.897 218.898 363 220 363H242C243.103 363 244 363.897 244 365ZM241 365H221C220.447 365 220 365.447 220 366V384C220 384.553 220.447 385 221 385H241C241.553 385 242 384.553 242 384V366C242 365.447 241.553 365 241 365ZM241 366V379.869L237.75 376.33900000000006C237.56 376.12300000000005 237.287 376.00000000000006 237 376.00000000000006C236.713 376.00000000000006 236.44 376.12300000000005 236.25 376.33900000000006L233.648 379.28900000000004L225.75 370.33900000000006C225.56 370.12300000000005 225.287 370.00000000000006 225 370.00000000000006C224.713 370.00000000000006 224.44 370.12300000000005 224.25 370.33900000000006L221 374.08700000000005V366.00000000000006ZM221 375.599L225 371L233.066 380.14300000000003L233.64600000000002 380.80100000000004L236.40800000000002 384.00000000000006H221.00000000000003ZM237.741 384L234.31400000000002 380.045L237.00000000000003 377L241.00000000000003 381.379V384ZM235 374C236.657 374 238 372.657 238 371C238 369.343 236.657 368 235 368C233.343 368 232 369.343 232 371C232 372.657 233.343 374 235 374ZM235 369C236.103 369 237 369.897 237 371C237 372.102 236.103 373 235 373C233.898 373 233 372.102 233 371C233 369.897 233.898 369 235 369Z " fill="#202728" fill-opacity="1" transform="matrix(1,0,0,1,-216,-361)"></path></svg>