<svg id="SvgjsSvg1032" xmlns="http://www.w3.org/2000/svg" version="1.1" xmlns:xlink="http://www.w3.org/1999/xlink" xmlns:svgjs="http://svgjs.com/svgjs" width="32" height="32" viewBox="0 0 32 32"><title>search</title><desc>Created with Avocode.</desc><defs id="SvgjsDefs1033"></defs><path id="SvgjsPath1034" d="M235 182C228.373 182 223 187.373 223 194C223 196.026 223.507 197.933 224.395 199.607L216.05100000000002 207.949L216.05800000000002 207.95600000000002C215.40600000000003 208.597 215.00000000000003 209.485 215.00000000000003 210.471C215.00000000000003 212.42000000000002 216.58000000000004 214 218.52900000000002 214C219.51500000000001 214 220.40300000000002 213.594 221.044 212.942L221.042 212.94L229.383 204.601C231.059 205.49099999999999 232.96900000000002 206 235 206C241.627 206 247 200.627 247 194C247 187.373 241.627 182 235 182ZM219.795 211.692C219.47299999999998 212.025 219.027 212.235 218.529 212.235C217.555 212.235 216.765 211.44500000000002 216.765 210.471C216.765 209.973 216.975 209.52700000000002 217.308 209.205L217.299 209.197L225.365 201.131C226.07000000000002 202.082 226.91 202.922 227.859 203.629ZM235 204C229.478 204 225 199.522 225 194C225 188.478 229.478 184 235 184C240.523 184 245 188.478 245 194C245 199.522 240.523 204 235 204ZM235 187C231.134 187 228 190.134 228 194C228 194.276 228.224 194.5 228.5 194.5C228.776 194.5 229 194.276 229 194C229 190.687 231.687 188 235 188C235.276 188 235.5 187.776 235.5 187.5C235.5 187.224 235.276 187 235 187Z " fill="#202728" fill-opacity="1" transform="matrix(1,0,0,1,-215,-182)"></path></svg>