<svg id="SvgjsSvg1035" xmlns="http://www.w3.org/2000/svg" version="1.1" xmlns:xlink="http://www.w3.org/1999/xlink" xmlns:svgjs="http://svgjs.com/svgjs" width="32" height="32" viewBox="0 0 32 32"><title>settings</title><desc>Created with Avocode.</desc><defs id="SvgjsDefs1036"></defs><path id="SvgjsPath1037" d="M305.392 194.679L302.326 194.064C302.172 193.62099999999998 301.99100000000004 193.191 301.79 192.775L303.52500000000003 190.172C304.055 189.379 303.949 188.322 303.27500000000003 187.648L301.35200000000003 185.725C300.96500000000003 185.338 300.45300000000003 185.13899999999998 299.937 185.13899999999998C299.553 185.13899999999998 299.166 185.249 298.82800000000003 185.475L296.225 187.21C295.80800000000005 187.008 295.37800000000004 186.828 294.935 186.674L294.321 183.608C294.13500000000005 182.673 293.314 182 292.36 182H289.64C288.687 182 287.865 182.673 287.679 183.608L287.065 186.674C286.621 186.828 286.191 187.00900000000001 285.775 187.21L283.17199999999997 185.475C282.83299999999997 185.249 282.44699999999995 185.13899999999998 282.06399999999996 185.13899999999998C281.54699999999997 185.13899999999998 281.03499999999997 185.338 280.64799999999997 185.725L278.72499999999997 187.648C278.051 188.322 277.945 189.379 278.47499999999997 190.172L280.21 192.775C280.008 193.192 279.828 193.622 279.674 194.065L276.608 194.679C275.673 194.865 275 195.687 275 196.64000000000001V199.36C275 200.31300000000002 275.673 201.13500000000002 276.608 201.32100000000003L279.674 201.93600000000004C279.828 202.37900000000005 280.00899999999996 202.80900000000003 280.21 203.22500000000002L278.47499999999997 205.82800000000003C277.945 206.62100000000004 278.051 207.67800000000003 278.72499999999997 208.35200000000003L280.64799999999997 210.27500000000003C281.03499999999997 210.66200000000003 281.54699999999997 210.86100000000005 282.06399999999996 210.86100000000005C282.44699999999995 210.86100000000005 282.83399999999995 210.75100000000003 283.17199999999997 210.52500000000003L285.775 208.79000000000002C286.19199999999995 208.99200000000002 286.62199999999996 209.17200000000003 287.065 209.32600000000002L287.679 212.39200000000002C287.86499999999995 213.32700000000003 288.68699999999995 214.00000000000003 289.64 214.00000000000003H292.36C293.314 214.00000000000003 294.135 213.32700000000003 294.321 212.39200000000002L294.93600000000004 209.32600000000002C295.379 209.17200000000003 295.809 208.991 296.225 208.79000000000002L298.82800000000003 210.52500000000003C299.16700000000003 210.75100000000003 299.55300000000005 210.86100000000005 299.937 210.86100000000005C300.45300000000003 210.86100000000005 300.96500000000003 210.66200000000003 301.35200000000003 210.27500000000003L303.27500000000003 208.35200000000003C303.949 207.67800000000003 304.055 206.62100000000004 303.52500000000003 205.82800000000003L301.79 203.22500000000002C301.992 202.80800000000002 302.172 202.37800000000001 302.326 201.93500000000003L305.392 201.32100000000003C306.327 201.13500000000002 307 200.31300000000002 307 199.36V196.64000000000001C307 195.687 306.327 194.865 305.392 194.679ZM301.934 199.974C301.23900000000003 200.112 300.67 200.60799999999998 300.43800000000005 201.277C300.309 201.646 300.15900000000005 202.005 299.99000000000007 202.35299999999998C299.68100000000004 202.98999999999998 299.7320000000001 203.74399999999997 300.1260000000001 204.33399999999997L301.8610000000001 206.938L299.9370000000001 208.861L297.3340000000001 207.12599999999998C297.0000000000001 206.90299999999996 296.6130000000001 206.78999999999996 296.22500000000014 206.78999999999996C295.9280000000001 206.78999999999996 295.6300000000001 206.85599999999997 295.35400000000016 206.98899999999998C295.0070000000002 207.15699999999998 294.64800000000014 207.30899999999997 294.27800000000013 207.438C293.60900000000015 207.67 293.1130000000001 208.23899999999998 292.97500000000014 208.934L292.3600000000001 212H289.6400000000001L289.0260000000001 208.934C288.88800000000015 208.239 288.3920000000001 207.67 287.7230000000001 207.438C287.3540000000001 207.309 286.9950000000001 207.159 286.64800000000014 206.98999999999998C286.37100000000015 206.856 286.07300000000015 206.79 285.77500000000015 206.79C285.38700000000017 206.79 285.00000000000017 206.903 284.66600000000017 207.126L282.0620000000002 208.86100000000002L280.1390000000002 206.93800000000002L281.8740000000002 204.334C282.26700000000017 203.744 282.3180000000002 202.991 282.0110000000002 202.354C281.8430000000002 202.007 281.6910000000002 201.64800000000002 281.5620000000002 201.27800000000002C281.33000000000015 200.609 280.7610000000002 200.11300000000003 280.0660000000002 199.97500000000002L277.0010000000002 199.36L277.0000000000002 196.64000000000001L280.0660000000002 196.026C280.7610000000002 195.888 281.3300000000002 195.39200000000002 281.5620000000002 194.723C281.6910000000002 194.354 281.8410000000002 193.995 282.01000000000016 193.64700000000002C282.3190000000002 193.01000000000002 282.26800000000014 192.25600000000003 281.87400000000014 191.66600000000003L280.1390000000001 189.06300000000002L282.0620000000001 187.139L284.6660000000001 188.87400000000002C285.0000000000001 189.09700000000004 285.3870000000001 189.21000000000004 285.7750000000001 189.21000000000004C286.0720000000001 189.21000000000004 286.3700000000001 189.14400000000003 286.6470000000001 189.01100000000002C286.9930000000001 188.84300000000002 287.3520000000001 188.69100000000003 287.7220000000001 188.562C288.3910000000001 188.33 288.8870000000001 187.76100000000002 289.0250000000001 187.066L289.6400000000001 184.001L292.3600000000001 184L292.9740000000001 187.066C293.1120000000001 187.761 293.6080000000001 188.33 294.2770000000001 188.562C294.6470000000001 188.691 295.0050000000001 188.841 295.3530000000001 189.01000000000002C295.62900000000013 189.144 295.92700000000013 189.21 296.22500000000014 189.21C296.6130000000001 189.21 297.0000000000001 189.097 297.3340000000001 188.874L299.9370000000001 187.13899999999998L301.8610000000001 189.063L300.1260000000001 191.666C299.7330000000001 192.256 299.6820000000001 193.009 299.9890000000001 193.646C300.1570000000001 193.993 300.3090000000001 194.351 300.4380000000001 194.72199999999998C300.67000000000013 195.391 301.2390000000001 195.88699999999997 301.9340000000001 196.02499999999998L304.9990000000001 196.64L305.00000000000006 199.35999999999999ZM291 191C287.135 191 284 194.135 284 198C284 201.865 287.135 205 291 205C294.865 205 298 201.865 298 198C298 194.135 294.865 191 291 191ZM291 204.125C287.618 204.125 284.875 201.382 284.875 198C284.875 194.618 287.618 191.875 291 191.875C294.382 191.875 297.125 194.618 297.125 198C297.125 201.382 294.382 204.125 291 204.125ZM291 194C288.79 194 287 195.79 287 198C287 200.21 288.79 202 291 202C293.21 202 295 200.21 295 198C295 195.79 293.21 194 291 194ZM291 201C289.344 201 288 199.656 288 198C288 196.344 289.344 195 291 195C292.656 195 294 196.344 294 198C294 199.656 292.656 201 291 201Z " fill="#202728" fill-opacity="1" transform="matrix(1,0,0,1,-275,-182)"></path></svg>