<svg id="SvgjsSvg1131" xmlns="http://www.w3.org/2000/svg" version="1.1" xmlns:xlink="http://www.w3.org/1999/xlink" xmlns:svgjs="http://svgjs.com/svgjs" width="32" height="32" viewBox="0 0 32 32"><title>shop</title><desc>Created with Avocode.</desc><defs id="SvgjsDefs1132"></defs><path id="SvgjsPath1133" d="M66.3999 560.2L63.4014 556.202C63.2837 556.045 63.144000000000005 555.909 62.999500000000005 555.779V551C62.999500000000005 549.896 62.104000000000006 549 60.999500000000005 549H40.999500000000005C39.895 549 38.999500000000005 549.896 38.999500000000005 551V555.78C38.856 555.909 38.7173 556.044 38.600100000000005 556.1999999999999L35.601600000000005 560.199C35.21340000000001 560.7149999999999 35.00000000000001 561.3549999999999 35.00000000000001 562V563C35.00000000000001 564.654 36.34570000000001 566 38.00000000000001 566H37.999500000000005V579C37.999500000000005 580.105 38.895 581 39.999500000000005 581H61.999500000000005C63.104000000000006 581 63.999500000000005 580.105 63.999500000000005 579V566H64C65.6543 566 67 564.654 67 563V562C67 561.355 66.7866 560.715 66.3999 560.2ZM60.9995 551V555H40.9995V551ZM45.1934 564H41.003899999999994L45.003899999999994 557H47.1934ZM48.2339 557H50.4995V564H46.2339ZM51.4995 557H53.7651L55.7651 564H51.4995ZM54.8057 557H56.9951L60.9951 564H56.8057ZM37 563V562C37 561.783 37.0703 561.573 37.2002 561.4L40.2002 557.4C40.3887 557.148 40.685100000000006 557 41 557H43.8521L39.8525 564H38C37.4478 564 37 563.553 37 563ZM54.9995 579H47.4995V569H54.9995ZM61.9995 579H55.9995V569C55.9995 568.447 55.5518 568 54.9995 568H47.4995C46.9473 568 46.4995 568.447 46.4995 569V579H39.9995V566H61.9995ZM65 563C65 563.553 64.5522 564 64 564H62.147L58.147 557H61C61.3149 557 61.6113 557.148 61.7998 557.4L64.7998 561.4C64.92970000000001 561.573 65 561.783 65 562Z " fill="#202728" fill-opacity="1" transform="matrix(1,0,0,1,-35,-549)"></path></svg>