<svg id="SvgjsSvg1017" xmlns="http://www.w3.org/2000/svg" version="1.1" xmlns:xlink="http://www.w3.org/1999/xlink" xmlns:svgjs="http://svgjs.com/svgjs" width="33" height="32" viewBox="0 0 33 32"><title>sound</title><desc>Created with Avocode.</desc><defs id="SvgjsDefs1018"></defs><path id="SvgjsPath1019" d="M301.994 135.004H301.99600000000004C301.99800000000005 135.278 302.22 135.5 302.49600000000004 135.5C302.77200000000005 135.5 302.99600000000004 135.276 302.99600000000004 135C302.99600000000004 134.997 302.994 134.995 302.994 134.992C302.98800000000006 129.483 298.52500000000003 125.02 293.01300000000003 125.00599999999999C293.004 125.00499999999998 292.99600000000004 124.99999999999999 292.98600000000005 124.99999999999999C292.71000000000004 124.99999999999999 292.48600000000005 125.22399999999999 292.48600000000005 125.49999999999999C292.48600000000005 125.77499999999999 292.70900000000006 125.99899999999998 292.98500000000007 125.99999999999999V126.00399999999999C297.9530000000001 126.00399999999999 301.9940000000001 130.041 301.9940000000001 135.004ZM284.099 121.879C283.525 121.305 282.757 121 281.97499999999997 121C281.58799999999997 121 281.198 121.074 280.82699999999994 121.229C279.7049999999999 121.692 278.97299999999996 122.786 278.97299999999996 124L278.972 137.758L275.849 140.87900000000002C274.675 142.05 274.675 143.95000000000002 275.849 145.121L282.855 152.121C283.442 152.70700000000002 284.21000000000004 153 284.97900000000004 153C285.747 153 286.51500000000004 152.707 287.10200000000003 152.121L290.22600000000006 149H303.99600000000004C305.211 149 306.30600000000004 148.27 306.77000000000004 147.148C307.23600000000005 146.027 306.97800000000007 144.736 306.119 143.879ZM288.81 147.586L285.686 150.70700000000002C285.431 150.96200000000002 285.133 151.00000000000003 284.979 151.00000000000003C284.824 151.00000000000003 284.526 150.96200000000002 284.27099999999996 150.70700000000002L277.26399999999995 143.70700000000002C277.00899999999996 143.45200000000003 276.97099999999995 143.15400000000002 276.97099999999995 143.00000000000003C276.97099999999995 142.84600000000003 277.00899999999996 142.54800000000003 277.26399999999995 142.29400000000004L280.38699999999994 139.17200000000003C280.39599999999996 139.16300000000004 280.39899999999994 139.15000000000003 280.40799999999996 139.14200000000002L288.84099999999995 147.56600000000003C288.83199999999994 147.57400000000004 288.81899999999996 147.57700000000003 288.80999999999995 147.58600000000004ZM290.226 147C290.07 147 289.927 147.055 289.778 147.089L280.885 138.204C280.919 138.056 280.974 137.912 280.974 137.758L280.97499999999997 125.71200000000002L302.284 147.00000000000003ZM304.921 146.383C304.765 146.758 304.403 147 303.996 147H303.69899999999996L280.97499999999997 124.298V124C280.97499999999997 123.594 281.217 123.231 281.592 123.076C281.716 123.02499999999999 281.844 123 281.97499999999997 123C282.24199999999996 123 282.49399999999997 123.104 282.68199999999996 123.292L304.70399999999995 145.293C304.99099999999993 145.58 305.07599999999996 146.008 304.92099999999994 146.383ZM292.985 123V123.004C299.60900000000004 123.004 304.997 128.387 304.997 135.00400000000002H304.999C305.00100000000003 135.555 305.44800000000004 136.00000000000003 305.999 136.00000000000003C306.552 136.00000000000003 307 135.55300000000003 307 135.00000000000003C307 134.99700000000004 306.998 134.99500000000003 306.998 134.99200000000002C306.992 127.27400000000002 300.736 121.02000000000002 293.013 121.00600000000001C293.00399999999996 121.00500000000001 292.996 121.00000000000001 292.986 121.00000000000001C292.433 121.00000000000001 291.985 121.44700000000002 291.985 122.00000000000001C291.985 122.55200000000002 292.433 122.99900000000001 292.985 123.00000000000001Z " fill="#202728" fill-opacity="1" transform="matrix(1,0,0,1,-274,-121)"></path></svg>