<svg id="SvgjsSvg1068" xmlns="http://www.w3.org/2000/svg" version="1.1" xmlns:xlink="http://www.w3.org/1999/xlink" xmlns:svgjs="http://svgjs.com/svgjs" width="32" height="28" viewBox="0 0 32 28"><title>stack</title><desc>Created with Avocode.</desc><defs id="SvgjsDefs1069"></defs><path id="SvgjsPath1070" d="M246.924 320.455L242.922 305.44899999999996C242.68 304.597 241.89 303.99999999999994 241 303.99999999999994H221C220.11 303.99999999999994 219.32 304.5969999999999 219.078 305.44899999999996L215.076 320.4549999999999C215.025 320.6379999999999 215 320.8209999999999 215 320.99999999999994V327.99999999999994C215 330.20899999999995 216.791 331.99999999999994 219 331.99999999999994H243C245.209 331.99999999999994 247 330.20899999999995 247 327.99999999999994V320.99999999999994C247 320.82099999999997 246.975 320.6379999999999 246.924 320.4549999999999ZM245 328C245 329.103 244.103 330 243 330H219C217.898 330 217 329.103 217 328V321L221.001 305.999H240.999L245 321ZM238.742 308H223.25799999999998C222.80499999999998 308 222.408 308.305 222.29099999999997 308.743L218.84599999999998 320.743C218.76699999999997 321.043 218.82999999999998 321.363 219.01999999999998 321.609C219.20899999999997 321.856 219.50199999999998 322 219.813 322H224.381L225.828 324.895C226.167 325.572 226.859 326 227.617 326H234.38299999999998C235.141 326 235.83299999999997 325.572 236.17199999999997 324.895L237.61899999999997 322H242.18799999999996C242.49799999999996 322 242.79099999999997 321.856 242.98099999999997 321.609C243.16999999999996 321.363 243.23299999999998 321.043 243.15399999999997 320.743L239.70899999999997 308.743C239.59199999999998 308.305 239.19499999999996 308 238.74199999999996 308ZM237.619 320C236.857 320 236.172 320.423 235.83 321.106L234.383 324H227.61700000000002L226.17000000000002 321.106C225.828 320.423 225.14300000000003 320 224.38100000000003 320H220.33400000000003L223.25800000000004 309H238.74200000000005L241.66600000000005 320Z " fill="#202728" fill-opacity="1" transform="matrix(1,0,0,1,-215,-304)"></path></svg>