<svg id="SvgjsSvg1011" xmlns="http://www.w3.org/2000/svg" version="1.1" xmlns:xlink="http://www.w3.org/1999/xlink" xmlns:svgjs="http://svgjs.com/svgjs" width="34" height="31" viewBox="0 0 34 31"><title>star</title><desc>Created with Avocode.</desc><defs id="SvgjsDefs1012"></defs><path id="SvgjsPath1013" d="M186.881 133.557C186.604 132.75799999999998 185.893 132.173 185.038 132.046L176.71200000000002 130.808L173.092 123.294C172.71200000000002 122.505 171.89600000000002 122 171 122C170.104 122 169.289 122.505 168.908 123.294L165.289 130.808L156.962 132.046C156.106 132.173 155.39499999999998 132.75799999999998 155.11999999999998 133.557C154.84399999999997 134.357 155.05199999999996 135.23899999999998 155.65699999999998 135.84199999999998L161.759 141.93499999999997L160.344 150.38599999999997C160.2 151.23599999999996 160.569 152.09099999999998 161.292 152.58899999999997C161.689 152.86099999999996 162.156 152.99999999999997 162.623 152.99999999999997C163.00699999999998 152.99999999999997 163.391 152.90599999999998 163.74099999999999 152.71999999999997L171 148.81199999999998L178.26 152.71999999999997C178.60899999999998 152.90599999999998 178.994 152.99999999999997 179.37699999999998 152.99999999999997C179.844 152.99999999999997 180.30999999999997 152.86099999999996 180.70899999999997 152.58899999999997C181.43099999999998 152.09099999999998 181.79999999999998 151.23599999999996 181.65699999999998 150.38599999999997L180.24099999999999 141.93499999999997L186.344 135.84199999999998C186.948 135.23899999999998 187.155 134.35699999999997 186.881 133.557ZM178.588 140.363C178.076 140.874 177.844 141.592 177.962 142.297L179.37699999999998 150.749L172.118 146.84199999999998C171.769 146.654 171.385 146.56099999999998 171 146.56099999999998C170.616 146.56099999999998 170.231 146.65399999999997 169.883 146.84199999999998L162.62300000000002 150.749L164.03900000000002 142.297C164.157 141.59199999999998 163.925 140.874 163.413 140.363L157.311 134.272L165.637 133.03099999999998C166.398 132.91799999999998 167.053 132.44199999999998 167.381 131.76399999999998L171 124.25099999999998L174.62 131.76399999999998C174.947 132.44199999999998 175.601 132.91799999999998 176.362 133.03099999999998L184.689 134.272Z " fill="#202728" fill-opacity="1" transform="matrix(1,0,0,1,-154,-122)"></path></svg>