<svg id="SvgjsSvg1113" xmlns="http://www.w3.org/2000/svg" version="1.1" xmlns:xlink="http://www.w3.org/1999/xlink" xmlns:svgjs="http://svgjs.com/svgjs" width="32" height="28" viewBox="0 0 32 28"><title>study</title><desc>Created with Avocode.</desc><defs id="SvgjsDefs1114"></defs><path id="SvgjsPath1115" d="M67 493C67 491.594 66.0435 490.392 64.6748 490.076L51.66160000000001 487.07300000000004C51.443400000000004 487.02400000000006 51.22070000000001 487.00000000000006 51.00000000000001 487.00000000000006C50.779300000000006 487.00000000000006 50.55660000000001 487.02400000000006 50.32520000000001 487.0760000000001L37.32620000000001 490.0760000000001C35.956500000000005 490.39200000000005 35.00000000000001 491.59400000000005 35.00000000000001 493.00000000000006C35.00000000000001 494.40600000000006 35.956500000000005 495.60800000000006 37.32520000000001 495.92400000000004L40.00000000000001 496.54100000000005V505.00000000000006C40.00000000000001 507.65400000000005 43.037600000000005 510.00000000000006 51.00000000000001 510.00000000000006C58.96240000000001 510.00000000000006 62.00000000000001 507.65400000000005 62.00000000000001 505.00000000000006V496.54100000000005L64.6738 495.92400000000004C66.0435 495.60800000000006 67 494.40600000000006 67 493.00000000000006ZM60 505C60 506.106 57 508 51 508C45 508 42 506.106 42 505V497.003L50.3384 498.92699999999996C50.5566 498.97599999999994 50.7793 498.99999999999994 51 498.99999999999994C51.2207 498.99999999999994 51.4434 498.97599999999994 51.6748 498.9239999999999L60 497.00299999999993ZM51.2251 496.975C51.1509 496.99100000000004 51.0757 497 51 497C50.9243 497 50.8491 496.991 50.7749 496.975L37.7749 493.975C37.3213 493.87 37 493.466 37 493C37 492.534 37.3213 492.13 37.7749 492.025L50.7749 489.025C50.8491 489.00899999999996 50.9243 489 51 489C51.0757 489 51.1509 489.009 51.2251 489.025L64.2251 492.025C64.67869999999999 492.13 65 492.534 65 493C65 493.466 64.6787 493.87 64.2251 493.975ZM64 498V507C64 507.553 64.4478 508 65 508C65.5522 508 66 507.553 66 507V498C66 497.447 65.5522 497 65 497C64.4478 497 64 497.447 64 498ZM65 509C63.8955 509 63 511.896 63 513C63 514.105 63.8955 515 65 515C66.1045 515 67 514.105 67 513C67 511.896 66.1045 509 65 509Z " fill="#151e16" fill-opacity="1" transform="matrix(1,0,0,1,-35,-487)"></path></svg>