<svg id="SvgjsSvg1122" xmlns="http://www.w3.org/2000/svg" version="1.1" xmlns:xlink="http://www.w3.org/1999/xlink" xmlns:svgjs="http://svgjs.com/svgjs" width="32" height="28" viewBox="0 0 32 28"><title>t-shirt</title><desc>Created with Avocode.</desc><defs id="SvgjsDefs1123"></defs><path id="SvgjsPath1124" d="M246.25 491.439L241.25 487.439C240.895 487.154 240.454 487 240 487H222C221.546 487 221.106 487.154 220.751 487.439L215.751 491.439C215.096 491.96200000000005 214.838 492.838 215.103 493.63300000000004L217.103 499.63300000000004C217.3 500.22400000000005 217.761 500.69000000000005 218.351 500.89200000000005C218.563 500.96400000000006 218.782 501.00000000000006 219 501.00000000000006C219.348 501.00000000000006 219.693 500.90900000000005 220 500.7320000000001V513.0000000000001C220 514.1050000000001 220.895 515.0000000000001 222 515.0000000000001H240C241.105 515.0000000000001 242 514.1050000000001 242 513.0000000000001V500.7320000000001C242.307 500.9090000000001 242.652 501.00000000000006 243 501.00000000000006C243.218 501.00000000000006 243.437 500.96400000000006 243.649 500.89200000000005C244.239 500.69000000000005 244.7 500.22400000000005 244.898 499.63300000000004L246.897 493.63300000000004C247.16199999999998 492.838 246.904 491.96200000000005 246.25 491.439ZM234.754 489C234.202 490.161 232.736 491 231 491C229.264 491 227.798 490.161 227.246 489ZM243 499L240 497V513H222V497L219 499L217 493L222 489H226.177C226.73399999999998 490.722 228.673 492 231 492C233.327 492 235.266 490.722 235.823 489H240L245 493Z " fill="#202728" fill-opacity="1" transform="matrix(1,0,0,1,-215,-487)"></path></svg>