<svg id="SvgjsSvg1041" xmlns="http://www.w3.org/2000/svg" version="1.1" xmlns:xlink="http://www.w3.org/1999/xlink" xmlns:svgjs="http://svgjs.com/svgjs" width="33" height="24" viewBox="0 0 33 24"><title>tag</title><desc>Created with Avocode.</desc><defs id="SvgjsDefs1042"></defs><path id="SvgjsPath1043" d="M66.3916 255.88L61.3916 247.88C60.6611 246.71099999999998 59.378899999999994 246 58 246H39C36.791 246 35 247.791 35 250V266C35 268.209 36.791 270 39 270H58C59.3789 270 60.6611 269.289 61.3916 268.12L66.3916 260.12C67.20309999999999 258.823 67.20309999999999 257.177 66.3916 255.88ZM64.6963 259.06L59.695299999999996 267.061C59.3281 267.649 58.6943 268 57.99999999999999 268H38.99999999999999C37.897499999999994 268 36.99999999999999 267.103 36.99999999999999 266V250C36.99999999999999 248.898 37.897499999999994 248 38.99999999999999 248H57.99999999999999C58.69429999999999 248 59.32809999999999 248.352 59.695299999999996 248.939L64.6953 256.94C65.0986 257.584 65.0986 258.416 64.69630000000001 259.06ZM58 255C56.3428 255 55 256.343 55 258C55 259.657 56.3428 261 58 261C59.6572 261 61 259.657 61 258C61 256.343 59.6572 255 58 255ZM58 260C56.8955 260 56 259.104 56 258C56 256.896 56.8955 256 58 256C59.1045 256 60 256.896 60 258C60 259.104 59.1045 260 58 260Z " fill="#202728" fill-opacity="1" transform="matrix(1,0,0,1,-35,-246)"></path></svg>