<svg id="SvgjsSvg1023" xmlns="http://www.w3.org/2000/svg" version="1.1" xmlns:xlink="http://www.w3.org/1999/xlink" xmlns:svgjs="http://svgjs.com/svgjs" width="28" height="32" viewBox="0 0 28 32"><title>trash</title><desc>Created with Avocode.</desc><defs id="SvgjsDefs1024"></defs><path id="SvgjsPath1025" d="M64.9814 188.817C64.8848 187.247 63.594699999999996 186.001 61.99999999999999 186.001H58.99999999999999V185C58.99999999999999 183.343 57.657199999999996 182 55.99999999999999 182H45.99999999999999C44.34279999999999 182 42.99999999999999 183.343 42.99999999999999 185V186.001H39.99999999999999C38.40529999999999 186.001 37.115199999999994 187.247 37.01859999999999 188.817H36.99999999999999V191C36.99999999999999 192.105 37.89549999999999 193 38.99999999999999 193V210C38.99999999999999 212.209 40.79099999999999 214 42.99999999999999 214H58.99999999999999C61.208999999999996 214 62.99999999999999 212.209 62.99999999999999 210V193C64.10449999999999 193 65 192.105 65 191V188.817ZM45 185.001C45 184.448 45.4473 184.001 46 184.001H56C56.5527 184.001 57 184.448 57 185.001V186.001H45ZM61 210C61 211.103 60.1025 212 59 212H43C41.8975 212 41 211.103 41 210V193H61ZM63 191H39V189.001C39 188.448 39.4473 188.001 40 188.001H62C62.5527 188.001 63 188.448 63 189.001ZM44 210.004H46C46.5527 210.004 47 209.557 47 209.004V196.004C47 195.451 46.5527 195.004 46 195.004H44C43.4473 195.004 43 195.451 43 196.004V209.004C43 209.557 43.4473 210.004 44 210.004ZM44 196.004H46V209.004H44ZM50 210.004H52C52.5527 210.004 53 209.557 53 209.004V196.004C53 195.451 52.5527 195.004 52 195.004H50C49.4473 195.004 49 195.451 49 196.004V209.004C49 209.557 49.4473 210.004 50 210.004ZM50 196.004H52V209.004H50ZM56 210.004H58C58.5527 210.004 59 209.557 59 209.004V196.004C59 195.451 58.5527 195.004 58 195.004H56C55.4473 195.004 55 195.451 55 196.004V209.004C55 209.557 55.4473 210.004 56 210.004ZM56 196.004H58V209.004H56Z " fill="#202728" fill-opacity="1" transform="matrix(1,0,0,1,-37,-182)"></path></svg>