<svg id="SvgjsSvg1143" xmlns="http://www.w3.org/2000/svg" version="1.1" xmlns:xlink="http://www.w3.org/1999/xlink" xmlns:svgjs="http://svgjs.com/svgjs" width="32" height="26" viewBox="0 0 32 26"><title>truck</title><desc>Created with Avocode.</desc><defs id="SvgjsDefs1144"></defs><path id="SvgjsPath1145" d="M297.832 560.445C297.647 560.167 297.335 560 297 560H296.001C295.448 560 295.001 560.447 295.001 561V567C295.001 567.553 295.448 568 296.001 568H300.001C300.553 568 301.001 567.553 301.001 567V565.5C301.001 565.303 300.94199999999995 565.109 300.83299999999997 564.945ZM300.001 567H296.001V561H297L300.001 565.5ZM304.497 564.336L300.497 558.336C299.938 557.499 299.004 557 298.00100000000003 557H294.00000000000006V555C294.00000000000006 553.346 292.65500000000003 552 291.00000000000006 552H276.00000000000006C274.3450000000001 552 273.00000000000006 553.346 273.00000000000006 555V566C273.00000000000006 567.654 274.3450000000001 569 276.00000000000006 569V572C276.00000000000006 573.654 277.34600000000006 575 279.00000000000006 575H280.14200000000005C280.5880000000001 576.721 282.1410000000001 578 284.00100000000003 578C285.85800000000006 578 287.41100000000006 576.721 287.85800000000006 575H293.1410000000001C293.5880000000001 576.721 295.1410000000001 578 297.00000000000006 578C298.85800000000006 578 300.41100000000006 576.721 300.85800000000006 575H302.00000000000006C303.65500000000003 575 305.00000000000006 573.654 305.00000000000006 572V566C305.00000000000006 565.406 304.82700000000006 564.83 304.49700000000007 564.336ZM276 567C275.448 567 275 566.553 275 566V555C275 554.447 275.448 554 276 554H291C291.553 554 292.001 554.447 292.001 555V566C292.001 566.553 291.553 567 291 567ZM284.001 576C282.895 576 282.001 575.105 282.001 574C282.001 572.896 282.895 572 284.001 572C285.104 572 286 572.896 286 574C286 575.105 285.104 576 284.001 576ZM297 576C295.895 576 295.001 575.105 295.001 574C295.001 572.896 295.895 572 297 572C298.104 572 299.001 572.896 299.001 574C299.001 575.105 298.104 576 297 576ZM303.001 572C303.001 572.553 302.553 573 302 573H300.858C300.411 571.279 298.858 570 297 570C295.141 570 293.588 571.279 293.141 573H287.858C287.411 571.279 285.858 570 284.001 570C282.14099999999996 570 280.58799999999997 571.279 280.142 573H279C278.448 573 278 572.553 278 572V569H291C292.655 569 294 567.654 294 566V559H298.001C298.335 559 298.647 559.167 298.83299999999997 559.445L302.832 565.445C302.942 565.609 303.001 565.803 303.001 566Z " fill="#151e16" fill-opacity="1" transform="matrix(1,0,0,1,-273,-552)"></path></svg>