<svg id="SvgjsSvg1014" xmlns="http://www.w3.org/2000/svg" version="1.1" xmlns:xlink="http://www.w3.org/1999/xlink" xmlns:svgjs="http://svgjs.com/svgjs" width="33" height="25" viewBox="0 0 33 25"><title>tv</title><desc>Created with Avocode.</desc><defs id="SvgjsDefs1015"></defs><path id="SvgjsPath1016" d="M237.155 129.624C234.445 129.067 231.695 128.785 228.982 128.785C226.27 128.785 223.52 129.067 220.809 129.624C220.458 129.696 220.172 129.95 220.06 130.291C218.616 134.672 218.616 139.113 220.06 143.494C220.172 143.835 220.458 144.089 220.809 144.161C223.52 144.718 226.27 145 228.982 145C231.695 145 234.445 144.718 237.155 144.161C237.506 144.089 237.793 143.835 237.905 143.494C239.349 139.113 239.349 134.672 237.905 130.291C237.793 129.95 237.506 129.696 237.155 129.624ZM236.954 143.182C231.64000000000001 144.273 226.32500000000002 144.273 221.011 143.182C219.629 138.988 219.629 134.797 221.011 130.60399999999998C226.325 129.51299999999998 231.64 129.51299999999998 236.954 130.60399999999998C238.336 134.797 238.336 138.988 236.954 143.182ZM245.847 127.32C245.65300000000002 126.506 244.972 125.898 244.14100000000002 125.79799999999999C239.776 125.26899999999999 235.35000000000002 124.99999999999999 230.984 124.99999999999999C226.619 124.99999999999999 222.193 125.26899999999999 217.828 125.79799999999999C216.997 125.89799999999998 216.316 126.50599999999999 216.122 127.32C214.591 133.743 214.591 140.257 216.122 146.68C216.316 147.494 216.997 148.102 217.828 148.202C219.931 148.457 222.048 148.645 224.165 148.777C224.051 148.85 223.977 148.92399999999998 223.977 149C223.977 149.553 227.114 150 230.984 150C234.854 150 237.991 149.553 237.991 149C237.991 148.924 237.918 148.85 237.80300000000003 148.777C239.92100000000002 148.64499999999998 242.03800000000004 148.457 244.14100000000002 148.202C244.972 148.102 245.65300000000002 147.494 245.847 146.68C247.377 140.257 247.377 133.743 245.847 127.32000000000001ZM243.899 146.217C235.289 147.26100000000002 226.679 147.26100000000002 218.06900000000002 146.217C216.60500000000002 140.072 216.60500000000002 133.92800000000003 218.06900000000002 127.78300000000002C226.67900000000003 126.73900000000002 235.28900000000002 126.73900000000002 243.899 127.78300000000002C245.364 133.92800000000003 245.364 140.072 243.899 146.217ZM241.495 133C242.324 133 242.996 132.328 242.996 131.5C242.996 130.672 242.324 130 241.495 130C240.666 130 239.993 130.672 239.993 131.5C239.993 132.328 240.666 133 241.495 133ZM241.495 131C241.77 131 241.995 131.225 241.995 131.5C241.995 131.775 241.77 132 241.495 132C241.219 132 240.994 131.775 240.994 131.5C240.994 131.225 241.219 131 241.495 131ZM242.496 143H239.493C239.216 143 238.992 143.224 238.992 143.5C238.992 143.776 239.21599999999998 144 239.493 144H242.49599999999998C242.772 144 242.99599999999998 143.776 242.99599999999998 143.5C242.99599999999998 143.224 242.772 143 242.49599999999998 143ZM243.497 140H240.49400000000003C240.21700000000004 140 239.99300000000002 140.224 239.99300000000002 140.5C239.99300000000002 140.776 240.217 141 240.49400000000003 141H243.497C243.77300000000002 141 243.997 140.776 243.997 140.5C243.997 140.224 243.77300000000002 140 243.497 140ZM243.497 137H240.49400000000003C240.21700000000004 137 239.99300000000002 137.224 239.99300000000002 137.5C239.99300000000002 137.776 240.217 138 240.49400000000003 138H243.497C243.77300000000002 138 243.997 137.776 243.997 137.5C243.997 137.224 243.77300000000002 137 243.497 137ZM228.482 132.805L223.891 133.16400000000002C223.618 133.19500000000002 223.357 133.443 223.31099999999998 133.715L223.00499999999997 136.501C222.99099999999996 136.775 223.20399999999998 137 223.47899999999996 137C223.75299999999996 137 223.98599999999996 136.775 223.99699999999996 136.5L224.16399999999996 134.606C224.20099999999996 134.333 224.45599999999996 134.088 224.72899999999996 134.06L228.48199999999997 133.803C228.75799999999998 133.793 228.98199999999997 133.561 228.98199999999997 133.285C228.98199999999997 133.01 228.75799999999998 132.79399999999998 228.48199999999997 132.805Z " fill="#202728" fill-opacity="1" transform="matrix(1,0,0,1,-214,-125)"></path></svg>