<svg id="SvgjsSvg1026" xmlns="http://www.w3.org/2000/svg" version="1.1" xmlns:xlink="http://www.w3.org/1999/xlink" xmlns:svgjs="http://svgjs.com/svgjs" width="34" height="32" viewBox="0 0 34 32"><title>user</title><desc>Created with Avocode.</desc><defs id="SvgjsDefs1027"></defs><path id="SvgjsPath1028" d="M126.109 210.336C125.90899999999999 210.203 122.262 207.811 116.83699999999999 206.638C118.82699999999998 204.115 120.10499999999999 200.725 120.64699999999999 198.46800000000002C121.39999999999999 195.34000000000003 121.10799999999999 189.22000000000003 118.10499999999999 185.406C116.34899999999999 183.178 113.892 182 110.99999999999999 182C108.10799999999999 182 105.65099999999998 183.178 103.89599999999999 185.406C100.89199999999998 189.22 100.59999999999998 195.34 101.35299999999998 198.46800000000002C101.89599999999999 200.72500000000002 103.17299999999997 204.115 105.16299999999998 206.638C99.73829999999998 207.811 96.09079999999999 210.203 95.89059999999998 210.336C95.15719999999997 210.82500000000002 94.83009999999997 211.73600000000002 95.08589999999998 212.579C95.34079999999999 213.423 96.11909999999997 214 96.99999999999999 214H124.99999999999999C125.88099999999999 214 126.65899999999999 213.423 126.91399999999999 212.579C127.16999999999999 211.73600000000002 126.84299999999999 210.82500000000002 126.10899999999998 210.336ZM115.267 205.398L114.94 205.814C112.55499999999999 208.553 109.445 208.553 107.06099999999999 205.814L106.73299999999999 205.398C103.948 201.869 102.56599999999999 197.202 103.16099999999999 192.749C103.707 188.47 106.15899999999999 184 110.99999999999999 184C115.84099999999998 184 118.29299999999999 188.47 118.83899999999998 192.749C119.43099999999998 197.204 118.05399999999999 201.868 115.26699999999998 205.398ZM97 212C97.1377 211.908 100.526 209.687 105.586 208.593L108.07 208.05499999999998C108.95599999999999 208.63799999999998 109.92999999999999 208.99999999999997 111 208.99999999999997C112.07 208.99999999999997 113.044 208.63799999999998 113.93 208.05499999999998L116.414 208.593C121.435 209.678 124.811 211.875 125 212Z " fill="#202728" fill-opacity="1" transform="matrix(1,0,0,1,-94,-182)"></path></svg>