<svg id="SvgjsSvg1020" xmlns="http://www.w3.org/2000/svg" version="1.1" xmlns:xlink="http://www.w3.org/1999/xlink" xmlns:svgjs="http://svgjs.com/svgjs" width="32" height="22" viewBox="0 0 32 22"><title>video</title><desc>Created with Avocode.</desc><defs id="SvgjsDefs1021"></defs><path id="SvgjsPath1022" d="M365 127H364.114C363.589 127 363.084 127.207 362.71 127.576L360 130.248V129C360 127.343 358.657 126 357 126H338C336.346 126 335 127.346 335 129V145C335 146.657 336.343 148 338 148H357C358.657 148 360 146.657 360 145V143.78L362.71 146.452C363.084 146.821 363.589 147.028 364.114 147.028H365C366.105 147.028 367 146.13299999999998 367 145.028V129C367 127.896 366.105 127 365 127ZM338 146C337.448 146 337 145.552 337 145V129C337 128.447 337.447 128 338 128H357C357.552 128 358 128.448 358 129V145C358 145.552 357.552 146 357 146ZM365 145.028H364L360 141.028V141L359 140V134L364 129H365Z " fill="#202728" fill-opacity="1" transform="matrix(1,0,0,1,-335,-126)"></path></svg>