<svg id="SvgjsSvg1140" xmlns="http://www.w3.org/2000/svg" version="1.1" xmlns:xlink="http://www.w3.org/1999/xlink" xmlns:svgjs="http://svgjs.com/svgjs" width="34" height="34" viewBox="0 0 34 34"><title>vinyl</title><desc>Created with Avocode.</desc><defs id="SvgjsDefs1141"></defs><path id="SvgjsPath1142" d="M236.947 550.146C228.744 546.862 219.431 550.848 216.147 559.0509999999999C212.861 567.2549999999999 216.849 576.569 225.052 579.853C233.255 583.1379999999999 242.56799999999998 579.151 245.85299999999998 570.948C249.13799999999998 562.744 245.15099999999998 553.4309999999999 236.94699999999997 550.146ZM225.796 577.997C218.629 575.126 215.134 566.962 218.003 559.795C220.873 552.6289999999999 229.03699999999998 549.132 236.20399999999998 552.0029999999999C243.37099999999998 554.8729999999999 246.86599999999999 563.0379999999999 243.99699999999999 570.204C241.12699999999998 577.371 232.962 580.866 225.796 577.997ZM231.744 563.143C230.718 562.7320000000001 229.554 563.231 229.143 564.2560000000001C228.733 565.282 229.231 566.4460000000001 230.256 566.8560000000001C231.281 567.267 232.446 566.7680000000001 232.856 565.7440000000001C233.267 564.7180000000002 232.769 563.5540000000001 231.744 563.1430000000001ZM230.628 565.928C230.11599999999999 565.722 229.867 565.14 230.071 564.627C230.277 564.116 230.85999999999999 563.867 231.37199999999999 564.0709999999999C231.88299999999998 564.276 232.13299999999998 564.8589999999999 231.928 565.372C231.722 565.8829999999999 231.139 566.132 230.628 565.928ZM233.23 559.43C230.154 558.198 226.661 559.694 225.42999999999998 562.769C224.19799999999998 565.845 225.694 569.337 228.76899999999998 570.569C231.84599999999998 571.8009999999999 235.33799999999997 570.3059999999999 236.56999999999996 567.2299999999999C237.80199999999996 564.1539999999999 236.30599999999995 560.6619999999999 233.22999999999996 559.43ZM229.513 568.712C227.466 567.893 226.467 565.559 227.286 563.512C228.106 561.4649999999999 230.439 560.4659999999999 232.487 561.286C234.535 562.106 235.533 564.4399999999999 234.714 566.487C233.893 568.534 231.56 569.534 229.513 568.712ZM238.427 567.973C238.529 567.717 238.404 567.4259999999999 238.148 567.324C237.892 567.2199999999999 237.6 567.3449999999999 237.498 567.602L237.49699999999999 567.601C236.778 569.397 235.40099999999998 570.73 233.754 571.435C233.501 571.544 233.38299999999998 571.837 233.49099999999999 572.0899999999999C233.6 572.3449999999999 233.89399999999998 572.4619999999999 234.148 572.3539999999999C234.15699999999998 572.3499999999999 234.161 572.342 234.16899999999998 572.3389999999999C236.04199999999997 571.53 237.60899999999998 570.012 238.426 567.973ZM241.861 568.81C241.605 568.707 241.313 568.833 241.21099999999998 569.088C240.082 571.909 237.916 574.0029999999999 235.32799999999997 575.112C235.075 575.2199999999999 234.95699999999997 575.514 235.06599999999997 575.7679999999999C235.17499999999998 576.0229999999999 235.46799999999996 576.1389999999999 235.72199999999998 576.031C235.73499999999999 576.025 235.74299999999997 576.0139999999999 235.75499999999997 576.0079999999999C238.56399999999996 574.795 240.91499999999996 572.5179999999999 242.13899999999995 569.4599999999999C242.24199999999996 569.204 242.11699999999996 568.9129999999999 241.86099999999996 568.81ZM240.004 568.067C239.74699999999999 567.964 239.457 568.088 239.35299999999998 568.345C238.42999999999998 570.653 236.659 572.3670000000001 234.54099999999997 573.273H234.54199999999997C234.28799999999998 573.3820000000001 234.16999999999996 573.676 234.27899999999997 573.9300000000001C234.38699999999997 574.1840000000001 234.68099999999995 574.301 234.93499999999997 574.1930000000001C234.94599999999997 574.1880000000001 234.95099999999996 574.1790000000001 234.96199999999996 574.1730000000001C237.30199999999996 573.1630000000001 239.26099999999997 571.2660000000001 240.28199999999995 568.7170000000001C240.38499999999996 568.4600000000002 240.25999999999996 568.1690000000001 240.00399999999996 568.0670000000001ZM228.509 557.908C228.39899999999997 557.653 228.106 557.537 227.85199999999998 557.6460000000001C227.843 557.6490000000001 227.83799999999997 557.657 227.82999999999998 557.6600000000001C225.957 558.469 224.39 559.988 223.57399999999998 562.0260000000001H223.57299999999998C223.46999999999997 562.283 223.59499999999997 562.5730000000001 223.85099999999997 562.6750000000001C224.10799999999998 562.778 224.39899999999997 562.653 224.50199999999998 562.397H224.503C225.22099999999998 560.6030000000001 226.599 559.269 228.24599999999998 558.565C228.49899999999997 558.456 228.617 558.163 228.509 557.908ZM226.934 554.231C226.82399999999998 553.977 226.531 553.86 226.277 553.968C226.265 553.973 226.25699999999998 553.9839999999999 226.24599999999998 553.99C223.43599999999998 555.2040000000001 221.08599999999998 557.48 219.861 560.538C219.75799999999998 560.795 219.88299999999998 561.086 220.13899999999998 561.189C220.39499999999998 561.2919999999999 220.68599999999998 561.1669999999999 220.789 560.911C221.91799999999998 558.0899999999999 224.083 555.996 226.672 554.887C226.92499999999998 554.7779999999999 227.043 554.4849999999999 226.934 554.231ZM227.458 556.725C227.712 556.6170000000001 227.83 556.3240000000001 227.721 556.0690000000001C227.612 555.816 227.318 555.6980000000001 227.064 555.8070000000001C227.054 555.8110000000001 227.049 555.8210000000001 227.03799999999998 555.8250000000002C224.69699999999997 556.8360000000001 222.73799999999997 558.7350000000001 221.718 561.2830000000001C221.61399999999998 561.5400000000001 221.73999999999998 561.8300000000002 221.99599999999998 561.9330000000001C222.25199999999998 562.0350000000001 222.54299999999998 561.9120000000001 222.646 561.6550000000001C223.569 559.3470000000001 225.34199999999998 557.6320000000001 227.458 556.7270000000001Z " fill="#151e16" fill-opacity="1" transform="matrix(1,0,0,1,-214,-548)"></path></svg>