<svg id="SvgjsSvg1137" xmlns="http://www.w3.org/2000/svg" version="1.1" xmlns:xlink="http://www.w3.org/1999/xlink" xmlns:svgjs="http://svgjs.com/svgjs" width="33" height="31" viewBox="0 0 33 31"><title>wallet</title><desc>Created with Avocode.</desc><defs id="SvgjsDefs1138"></defs><path id="SvgjsPath1139" d="M173 567C171.895 567 171 567.896 171 569C171 570.105 171.895 571 173 571C174.105 571 175 570.105 175 569C175 567.896 174.105 567 173 567ZM184.002 562C184.001 562 184.001 562 184 562V553C184 551.343 182.657 550 181 550H160.5C157.467 550 155 552.468 155 555.5V575.5C155 578.532 157.467 581 160.5 581H178.5C181.533 581 184 578.532 184 575.5V574C184.001 574 184.001 574 184.002 574C188 570.999 188 565.001 184.002 562ZM160.5 552H181C181.551 552 182 552.448 182 553V559.184C181.686 559.072 181.352 559 181 559V554C181 553.447 180.552 553 180 553H159C158.447 553 158 553.447 158 554V557.943C157.383 557.313 157 556.452 157 555.5C157 553.567 158.567 552 160.5 552ZM180 555H159V554H180ZM180 556V557H159V556ZM180 558V559H160.5C159.96 559 159.456 558.868 159 558.65V558ZM182 575.5C182 577.433 180.433 579 178.5 579H160.5C158.567 579 157 577.433 157 575.5V559.739C157.952 560.5260000000001 159.171 561 160.5 561H181C181.551 561 182 561.448 182 562V564H173.001C170.239 564 168 566.238 168 569C168 571.762 170.239 574 173.001 574H182ZM183.277 572H173.00099999999998C171.34599999999998 572 169.99999999999997 570.654 169.99999999999997 569C169.99999999999997 567.346 171.34599999999998 566 173.00099999999998 566H181.99999999999997C182.61799999999997 565.992 183.22999999999996 565.693 183.60199999999998 565.196C183.70699999999997 565.057 183.78699999999998 564.899 183.85199999999998 564.735C183.86099999999996 564.713 183.87699999999998 564.696 183.88499999999996 564.674C184.60399999999996 565.616 184.99999999999997 566.773 184.99999999999997 568C184.99999999999997 569.538 184.37899999999996 570.965 183.27699999999996 572Z " fill="#202728" fill-opacity="1" transform="matrix(1,0,0,1,-155,-550)"></path></svg>