<svg id="SvgjsSvg1146" xmlns="http://www.w3.org/2000/svg" version="1.1" xmlns:xlink="http://www.w3.org/1999/xlink" xmlns:svgjs="http://svgjs.com/svgjs" width="31" height="31" viewBox="0 0 31 31"><title>world</title><desc>Created with Avocode.</desc><defs id="SvgjsDefs1147"></defs><path id="SvgjsPath1148" d="M350.5 550C341.94 550 335 556.94 335 565.5C335 574.061 341.94 581 350.5 581C359.06 581 366 574.061 366 565.5C366 556.94 359.06 550 350.5 550ZM363.975 565H357.97900000000004C357.92400000000004 562.785 357.53000000000003 560.669 356.831 558.732C358.18 558.169 359.428 557.42 360.56600000000003 556.535C362.59000000000003 558.8059999999999 363.85600000000005 561.755 363.975 565ZM349.947 578.972C348.285 577.588 346.892 575.7909999999999 345.871 573.704C347.18 573.295 348.567 573.0709999999999 350 573.025V578.975C349.982 578.974 349.965 578.9730000000001 349.947 578.972ZM351.052 552.028C352.93800000000005 553.599 354.47700000000003 555.701 355.51800000000003 558.154C354.093 558.642 352.57700000000006 558.924 351.00000000000006 558.975V552.025C351.01800000000003 552.026 351.03400000000005 552.0269999999999 351.0520000000001 552.028ZM352.717 552.198C355.477 552.6569999999999 357.954 553.946 359.881 555.812C358.83399999999995 556.615 357.69 557.296 356.45399999999995 557.811C355.54299999999995 555.653 354.26699999999994 553.746 352.7169999999999 552.198ZM350 552.025V558.975C348.423 558.924 346.907 558.642 345.482 558.154C346.523 555.701 348.06300000000005 553.599 349.94800000000004 552.028C349.966 552.027 349.982 552.0260000000001 350.00000000000006 552.025ZM344.546 557.811C343.311 557.296 342.166 556.615 341.11899999999997 555.812C343.046 553.946 345.52299999999997 552.657 348.28299999999996 552.198C346.73299999999995 553.746 345.45699999999994 555.653 344.54599999999994 557.811ZM345.106 559.076C346.64799999999997 559.611 348.29 559.923 350 559.975V565H344.022C344.075 562.906 344.44599999999997 560.905 345.106 559.076ZM350 566V572.025C348.423 572.073 346.898 572.331 345.461 572.794C344.595 570.732 344.084 568.435 344.022 566ZM348.283 578.802C345.81100000000004 578.3910000000001 343.565 577.314 341.738 575.75C342.724 575.067 343.788 574.489 344.926 574.05C345.798 575.858 346.94 577.463 348.283 578.8019999999999ZM351 578.975V573.025C352.433 573.071 353.82 573.295 355.129 573.704C354.108 575.7909999999999 352.71500000000003 577.588 351.053 578.972C351.035 578.973 351.018 578.9739999999999 351 578.975ZM356.074 574.05C357.212 574.4889999999999 358.276 575.067 359.262 575.75C357.436 577.314 355.19 578.391 352.717 578.802C354.061 577.463 355.202 575.8580000000001 356.074 574.0500000000001ZM355.539 572.794C354.102 572.331 352.577 572.073 351 572.025V566H356.978C356.916 568.435 356.40500000000003 570.732 355.539 572.794ZM351 565V559.975C352.71 559.923 354.353 559.611 355.894 559.076C356.55400000000003 560.905 356.925 562.9060000000001 356.978 565ZM340.434 556.535C341.572 557.42 342.82000000000005 558.169 344.16900000000004 558.732C343.47 560.669 343.076 562.785 343.02200000000005 565H337.02500000000003C337.14500000000004 561.755 338.41 558.806 340.434 556.535ZM337.025 566H343.022C343.084 568.555 343.617 570.968 344.524 573.137C343.258 573.631 342.076 574.289 340.986 575.0669999999999C338.638 572.7309999999999 337.156 569.536 337.025 565.9999999999999ZM360.014 575.067C358.92400000000004 574.289 357.742 573.631 356.476 573.1370000000001C357.383 570.9680000000001 357.916 568.5550000000001 357.979 566.0000000000001H363.97499999999997C363.844 569.5360000000001 362.36199999999997 572.7310000000001 360.01399999999995 575.0670000000001Z " fill="#151e16" fill-opacity="1" transform="matrix(1,0,0,1,-335,-550)"></path></svg>